<?xml version="1.0" encoding="UTF-8" standalone="no"?>
<!-- Created with Inkscape (http://www.inkscape.org/) -->

<svg
   width="102.29457mm"
   height="36.282887mm"
   viewBox="0 0 102.29457 36.282887"
   version="1.1"
   id="svg1"
   xml:space="preserve"
   inkscape:export-batch-path="C:\Users\alvaro_silva\Desktop\logo"
   inkscape:export-batch-name="logo_color"
   inkscape:version="1.4.2 (f4327f4, 2025-05-13)"
   sodipodi:docname="logo_inkscape.svg"
   xmlns:inkscape="http://www.inkscape.org/namespaces/inkscape"
   xmlns:sodipodi="http://sodipodi.sourceforge.net/DTD/sodipodi-0.dtd"
   xmlns:xlink="http://www.w3.org/1999/xlink"
   xmlns="http://www.w3.org/2000/svg"
   xmlns:svg="http://www.w3.org/2000/svg"><sodipodi:namedview
     id="namedview1"
     pagecolor="#ffffff"
     bordercolor="#999999"
     borderopacity="1"
     inkscape:showpageshadow="2"
     inkscape:pageopacity="0"
     inkscape:pagecheckerboard="0"
     inkscape:deskcolor="#d1d1d1"
     inkscape:document-units="mm"
     inkscape:zoom="1.7356502"
     inkscape:cx="756.77693"
     inkscape:cy="361.24791"
     inkscape:window-width="1920"
     inkscape:window-height="1009"
     inkscape:window-x="1912"
     inkscape:window-y="-8"
     inkscape:window-maximized="1"
     inkscape:current-layer="g1"><inkscape:page
       x="0"
       y="0"
       width="102.29457"
       height="36.282887"
       id="page1"
       margin="0"
       bleed="0" /></sodipodi:namedview><defs
     id="defs1"><linearGradient
       id="swatch160"
       inkscape:swatch="solid"><stop
         style="stop-color:#ff00ff;stop-opacity:1;"
         offset="0"
         id="stop160" /></linearGradient><linearGradient
       id="linearGradient159"
       inkscape:collect="always"><stop
         style="stop-color:#3e7e97;stop-opacity:1;"
         offset="0"
         id="stop158" /><stop
         style="stop-color:#77bfbc;stop-opacity:1;"
         offset="1"
         id="stop159" /></linearGradient><clipPath
       clipPathUnits="userSpaceOnUse"
       id="clipPath3"><path
         d="M 0,4251.968 H 13181.103 V 0 H 0 Z"
         transform="translate(-3204.4425,-1399.5319)"
         id="path3" /></clipPath><clipPath
       clipPathUnits="userSpaceOnUse"
       id="clipPath5"><path
         d="M 0,4251.968 H 13181.103 V 0 H 0 Z"
         transform="translate(-2625.589,-3561.0067)"
         id="path5" /></clipPath><clipPath
       clipPathUnits="userSpaceOnUse"
       id="clipPath7"><path
         d="M 0,4251.968 H 13181.103 V 0 H 0 Z"
         transform="translate(-2071.4944,-3234.6039)"
         id="path7" /></clipPath><clipPath
       clipPathUnits="userSpaceOnUse"
       id="clipPath9"><path
         d="M 0,4251.968 H 13181.103 V 0 H 0 Z"
         transform="translate(-4211.755,-2752.1882)"
         id="path9" /></clipPath><clipPath
       clipPathUnits="userSpaceOnUse"
       id="clipPath11"><path
         d="M 0,4251.968 H 13181.103 V 0 H 0 Z"
         transform="translate(-6753.7834,-2017.8971)"
         id="path11" /></clipPath><clipPath
       clipPathUnits="userSpaceOnUse"
       id="clipPath31"><path
         d="M 0,4251.968 H 13181.103 V 0 H 0 Z"
         transform="translate(-6282.9392,-2819.2673)"
         id="path31" /></clipPath><filter
       style="color-interpolation-filters:sRGB"
       inkscape:label="Drop Shadow"
       id="filter347"
       x="-0.013988979"
       y="-0.021026148"
       width="1.034701"
       height="1.0326061"><feFlood
         result="flood"
         in="SourceGraphic"
         flood-opacity="0.498039"
         flood-color="rgb(0,0,0)"
         id="feFlood346" /><feGaussianBlur
         result="blur"
         in="SourceGraphic"
         stdDeviation="2.000000"
         id="feGaussianBlur346" /><feOffset
         result="offset"
         in="blur"
         dx="0.000000"
         dy="1.000000"
         id="feOffset346" /><feComposite
         result="comp1"
         operator="in"
         in="flood"
         in2="offset"
         id="feComposite346" /><feComposite
         result="comp2"
         operator="over"
         in="SourceGraphic"
         in2="comp1"
         id="feComposite347" /></filter><linearGradient
       inkscape:collect="always"
       xlink:href="#linearGradient159"
       id="linearGradient145"
       x1="-1590.9017"
       y1="-219.53067"
       x2="4697.8535"
       y2="-219.53067"
       gradientUnits="userSpaceOnUse" /><linearGradient
       inkscape:collect="always"
       xlink:href="#linearGradient159"
       id="linearGradient147"
       x1="-1128.7947"
       y1="-65.635612"
       x2="2927.4338"
       y2="-65.635612"
       gradientUnits="userSpaceOnUse" /><linearGradient
       inkscape:collect="always"
       xlink:href="#linearGradient159"
       id="linearGradient149"
       x1="-724.8927"
       y1="-135.35228"
       x2="1091.6587"
       y2="1244.9834"
       gradientUnits="userSpaceOnUse" /><linearGradient
       inkscape:collect="always"
       xlink:href="#linearGradient159"
       id="linearGradient153"
       x1="833.1001"
       y1="-2156.0571"
       x2="839.50604"
       y2="-609.3714"
       gradientUnits="userSpaceOnUse" /><linearGradient
       inkscape:collect="always"
       xlink:href="#linearGradient159"
       id="linearGradient155"
       x1="382.62454"
       y1="-1162.5529"
       x2="742.31891"
       y2="-847.82031"
       gradientUnits="userSpaceOnUse" /><linearGradient
       inkscape:collect="always"
       xlink:href="#linearGradient159"
       id="linearGradient157"
       x1="-657.2478"
       y1="-701.20959"
       x2="59.903885"
       y2="-277.84821"
       gradientUnits="userSpaceOnUse" /><linearGradient
       inkscape:collect="always"
       xlink:href="#linearGradient159"
       id="linearGradient158"
       gradientUnits="userSpaceOnUse"
       x1="-589.93121"
       y1="-526.78656"
       x2="181.62698"
       y2="21.747349" /><filter
       style="color-interpolation-filters:sRGB"
       inkscape:label="Drop Shadow"
       id="filter185"
       x="-0.0096214165"
       y="-0.02739649"
       width="1.0280044"
       height="1.0749482"><feFlood
         result="flood"
         in="SourceGraphic"
         flood-opacity="0.278431"
         flood-color="rgb(17,17,17)"
         id="feFlood184" /><feGaussianBlur
         result="blur"
         in="SourceGraphic"
         stdDeviation="0.800000"
         id="feGaussianBlur184" /><feOffset
         result="offset"
         in="blur"
         dx="0.000000"
         dy="1.300000"
         id="feOffset184" /><feComposite
         result="comp1"
         operator="in"
         in="flood"
         in2="offset"
         id="feComposite184" /><feComposite
         result="comp2"
         operator="over"
         in="SourceGraphic"
         in2="comp1"
         id="feComposite185" /></filter></defs><g
     id="g1"
     inkscape:groupmode="layer"
     inkscape:label="1"
     transform="matrix(0.26458334,0,0,0.26458333,173.89723,-85.732784)"><g
       id="g162"
       style="filter:url(#filter185)"><path
         id="path110"
         clip-path="url(#clipPath11)"
         style="fill:url(#linearGradient145);fill-opacity:1;fill-rule:nonzero;stroke:none;filter:url(#filter347)"
         d="m -1065.0514,400.47563 c -76.289,0.267 -152.6044,1.15324 -228.8584,-0.49676 -24.371,-0.526 -49.7954,-4.92788 -72.6764,-13.21388 -88.829,-32.17 -145.3197,-115.68561 -145.7997,-212.56461 -0.425,-85.695001 -0.124,-171.4271967 -0.149,-257.124197 -0.026,-39.599003 0,-79.176883 0,-118.775883 0,-39.599 -0.2857,-79.23055 0.099,-118.82555 0.172,-17.683 0.9885,-35.40554 2.6825,-53.00454 9.851,-102.347 102.5031,-191.92152 204.8151,-194.78052 81.549,-2.28 163.1945,-0.77344 244.8045,-0.54644 22.847,0.063 40.9491,10.80757 54.2961,28.91157 17.32705,23.504 19.83107,49.37085 7.05407,75.35885 -13.45097,27.356 -36.70357,40.99024 -67.26157,41.08224 -70.967,0.212 -141.8957,-0.0553 -212.8627,0.19871 -56.053,0.202 -87.6616,32.1467 -87.8276,88.4237 -0.151,50.828 -0.073,101.62836 -0.05,152.45636 0.012,25.411 0.081,25.47291 25.2852,25.48391 90.483,0.04 180.949,0.133 271.431,0 29.417,-0.043 53.3272,10.38563 68.7022,36.11463 28.74801,48.110996 -5.3446,108.614333 -62.0456,109.039333 -92.252,0.691 -184.538,0.215381 -276.796,0.248381 -26.562,0.01 -26.5618,0.02929 -26.5768,25.73229 -0.029,49.054 -0.061,98.086006 -0.05,147.141006 0.013,64.707 30.7601,95.46008 95.8751,95.57708 68.602,0.123 137.2076,-0.11565 205.8086,0.0993 42.444,0.133 73.97329,30.88481 74.06729,71.68281 0.093,40.663 -31.43289,71.63216 -73.96789,71.78216 z M 2086.5579,144.64302 c -24.3135,0.71696 -49.0851,-1.07761 -73.9679,-5.56374 -186.786,-33.678 -313.5169,-205.246692 -291.5499,-394.67769 28.139,-242.658 293.471,-386.32469 512.013,-276.99469 17.348,8.678 33.7835,19.17445 52.7065,30.00445 2.148,-6.606 3.7487,-11.58419 5.4147,-16.54219 17.239,-51.271 80.5953,-66.44792 119.6203,-29.01092 17.715,16.994 22.5867,38.16447 22.6027,61.30047 0.054,79.797 0.3103,159.59478 -0.1987,239.38978 -0.18,28.315 -0.1951,56.92669 -3.9741,84.89669 -23.6442,174.978123 -172.4723,302.17908 -342.6666,307.19784 z m -2667.81248,-0.29806 c -39.614,0.231 -79.22056,0.56032 -118.82556,-0.0497 -37.385,-0.575 -72.45241,-10.40118 -104.27041,-30.35218 -80.386,-50.405995 -116.72091,-135.984728 -99.89891,-230.49773 11.468,-64.437 47.39364,-108.18725 107.15164,-132.83425 20.159,-8.314 41.06659,-14.85246 61.89659,-21.41046 28.746,-9.048 58.112,-16.30805 86.536,-26.22905 38.578,-13.465 53.57466,-46.4064 39.79066,-83.4064 -9.025,-24.232 -34.01926,-42.26554 -61.94626,-42.57254 -57.346,-0.631 -114.73848,0.23921 -172.07848,-0.64579 -42.634,-0.656 -71.33769,-31.55264 -71.08669,-74.31564 0.242,-40.944 30.14992,-70.55502 72.27892,-71.03702 28.968,-0.33 57.96141,-0.0497 86.93341,-0.0497 v 1.49029 c 34.861,0 70.26012,-4.02453 104.46912,0.69547 121.115,16.711 199.15412,122.11499 184.10012,243.95999 -8.418,68.133 -43.08858,116.38447 -106.85358,142.62047 -19.078,7.85 -38.83328,14.11223 -58.56828,20.21823 -29.914,9.253 -60.54233,16.42784 -90.01333,26.87484 -37.371,13.248 -52.51634,41.941685 -45.05634,79.680685 6.066,30.685 33.97328,52.0403996 69.00028,52.2593996 39.022,0.243 78.06589,-0.1722951 117.08689,0.1987049 42.938,0.40700003 75.57617,32.3647425 75.30917,73.0737425 -0.267,40.860998 -32.85896,72.077598 -75.95496,72.328598 z m 2118.74108,-0.0993 c -152.244,-0.087 -271.4904,-118.609104 -271.9774,-270.4871 -0.188,-58.485 -0.024,-116.97147 -0.05,-175.45647 -0.026,-65.575 0,-131.14189 -0.05,-196.71789 -0.024,-29.818 14.5798,-50.85255 40.5358,-63.43655 48.168,-23.354 102.7175,10.71105 102.8795,64.28105 0.363,120.514 0.254,241.02764 0,361.54364 -0.182,85.775997 65.9666,140.6463582 136.1626,135.11935823 9.983,-0.78500003 20.1474,-0.53397133 30.1534,0.14902871 42.53,2.90999996 69.0271,33.25251806 67.8081,77.09751806 -1.078,38.802995 -31.0522,67.175735 -71.7822,67.857735 -11.229,0.188 -22.4494,0.0567 -33.6804,0.0497 z m 1333.3597,0 c -162.9732,3.77774 -302.1391,-127.840011 -302.6276,-294.87814 -0.158,-53.785 -0.05,-107.56341 -0.05,-161.34841 h -0.05 c 0,-61.468 -0.8139,-122.96119 0.5961,-184.39819 0.331,-14.486 5.2435,-30.69491 13.1145,-42.82091 17.149,-26.421 50.4698,-35.79405 80.1278,-26.22905 30.401,9.803 49.2308,35.30647 49.2788,68.20547 0.161,112.298 -0.5253,224.61023 0.1987,336.90423 0.691,107.042998 93.0963,180.630558 193.4393,155.1885582 66.327,-16.8170002 114.4707,-77.9486002 114.6527,-146.7435982 0.302,-113.479 -0.031,-226.95124 0.149,-340.43124 0.064,-39.586 26.5155,-70.91262 63.1385,-75.85562 44.631,-6.023 81.7901,27.1563 81.9161,74.2163 0.298,112.297 0.1104,224.60523 0.099,336.90423 -0.015,153.8979998 -108.709,278.15453 -261.148,298.65353 -11.0425,1.48487 -21.9711,2.38099 -32.836,2.63284 z m 1384.3277,-0.19871 c -11.9641,-0.12246 -24.0628,-0.7984 -36.214,-2.0864 -163.475,-17.327 -338.0106,-171.324494 -310.9236,-398.85049 26.463,-222.284 250.93,-364.13335 463.678,-294.23235 34.402,11.303 66.4969,29.74514 101.4389,45.70214 1.212,-3.643 2.8265,-8.64229 4.5205,-13.61129 17.546,-51.453 80.5607,-66.34883 119.5707,-28.56383 17.613,17.059 22.1713,38.45818 22.2053,61.49918 0.13,85.704 0.2939,171.37251 -0.1491,257.07451 -0.116,22.396 -0.8231,45.03227 -3.9741,67.16227 -25.7746,180.944067 -180.692,307.74323 -360.1526,305.90626 z M 4.1301532,143.99723 c -19.7599282,0.32025 -39.8611462,-0.80441 -60.2572712,-3.42766 -159.755002,-20.547 -297.304692,-169.094502 -299.547692,-329.6515 -2.65,-189.699 -0.96514,-379.45631 -0.74514,-569.19031 0.01,-9.115 2.49156,-18.92358 6.35856,-27.22258 14.452,-31.023 48.13358,-46.94725 80.92258,-39.39325 34.607,7.973 56.1025,34.10279 56.2335,69.84479 0.281,76.248 0.10535,152.51006 0.0993,228.75906 v 22.30463 c 4.855,-0.755 6.1297,-0.67923 7.1037,-1.19223 2.604,-1.373 5.15947,-2.92021 7.60047,-4.57021 74.99,-50.658 157.759525,-67.20615 246.791525,-56.13415 223.996995,27.854 383.096935,274.12083 273.119935,507.889834 C 262.23442,68.644529 142.44965,141.75544 4.1301532,143.99723 Z m 809.3251968,-0.0497 c -18.00451,0.55564 -36.27453,-0.18143 -54.69353,-2.23543 -206.378,-23.015 -376.48065,-242.35455 -288.96665,-480.46855 59.251,-161.213 225.623,-255.96799 394.628,-224.93399 133.464,24.507 226.35053,101.76391 274.56053,229.70291 4.764,12.641 6.5558,28.1343 4.3218,41.3803 -5.485,32.519 -32.3825,55.24308 -63.4365,57.52508 -36.688,2.696 -61.7259,-13.22162 -75.8059,-48.23562 -41.21904,-102.507 -127.57909,-153.96252 -235.66409,-139.39152 -45.39,6.119 -84.19042,25.69047 -116.39142,62.98947 7.109,3.733 11.57581,6.35264 16.29381,8.49464 59.191,26.889 118.40621,53.78485 177.64221,80.57485 81.314,36.775 162.80429,73.10492 243.91029,110.33092 42.041,19.296 55.7911,58.22132 36.8101,100.296318 -3.154,6.992 -6.6193,13.879961 -10.3823,20.565961 -63.5268,112.889 -176.79474,179.515201 -302.82635,183.404661 z m 2813.95995,-0.24838 c -12.2589,-0.0742 -24.5696,-0.72155 -37.0088,-1.98705 -196.554,-19.995 -370.1435,-222.237949 -298.6535,-458.31295 38.663,-127.67 127.9886,-208.38576 257.5216,-242.76776 14.099,-3.742 18.7006,-9.1178 15.3996,-23.1988 -2.957,-12.604 -5.0161,-25.58509 -5.8121,-38.49909 -1.955,-31.718 15.9854,-52.84013 47.3414,-57.82313 9.297,-1.478 19.276,-2.51965 27.322,-6.80565 7.013,-3.736 15.6134,-11.3088 16.3434,-17.9828 0.731,-6.67 -5.944,-16.30772 -12.121,-21.06272 -7.111,-5.473 -17.057,-9.12957 -26.08,-9.88557 -27.611,-2.314 -55.3496,-3.02545 -83.0586,-4.07345 -31.283,-1.183 -53.7895,-24.46853 -54.0975,-56.38253 -0.275,-28.581 22.9482,-52.50701 52.7562,-53.70001 14.172,-0.568 28.4272,-0.0994 42.6222,-0.0994 0.032,-0.478 0.017,-0.96261 0.05,-1.44061 24.15,1.696 48.4209,2.42735 72.4279,5.31535 42.759,5.145 81.466,20.25796 112.169,51.71296 39.944,40.923 46.3557,95.10277 16.1447,137.20577 -17.667,24.62 -42.8207,38.18498 -71.3847,46.64598 -7.441,2.204 -20.5617,0.31876 -17.6847,14.30676 2.654,12.897 -0.3249,29.47137 19.7711,33.08437 15.066,2.709 30.1399,6.53727 44.5099,11.77327 35.41,12.901 52.7637,49.77338 41.9267,86.78438 -10.242,34.976 -45.788,56.71521 -81.469,49.52721 -9.266,-1.866 -18.3543,-4.66764 -27.5703,-6.80564 -108.46,-25.167 -223.4789,42.16894 -250.2689,148.53194 -20.476,81.289 -3.0072,153.91161 59.1148,212.564612 59.267,55.9579996 129.0008,70.739301 207.0008,48.285301 42.091,-12.115 82.0893,8.2664807 93.2423,47.490481 12.109,42.581 -8.3623,79.552446 -51.9613,92.298446 -35.6775,10.4295 -71.7161,15.52284 -108.4929,15.30028 z M 0.00702582,-0.01417953 C 116.74703,0.28382047 211.09846,-93.34998 211.67746,-210.09498 c 0.579,-116.351 -95.24882,-212.50029 -211.91881535,-212.61429 -116.43800465,-0.114 -211.12692465,93.4738 -212.51492465,210.0808 -1.399,117.523002 93.45031,212.30929047 212.76330582,212.61429047 z M 4265.3078,-0.85867553 c 115.569,-0.41499997 209.9943,-96.42731647 209.2363,-212.76331447 -0.768,-117.884 -94.7291,-210.43413 -213.2601,-210.03113 -108.761,-3.582 -211.9468,86.43539 -211.7698,211.37239 0.17,120.061996 95.1006,211.85705447 215.7936,211.42205447 z M 2077.5168,-0.958028 c 116.098,-0.255 210.8782,-95.443087 210.6272,-211.571092 -0.256,-117.579 -94.5076,-211.08229 -212.5646,-210.92529 -118.31,0.157 -212.1192,93.449 -212.3162,211.124 -0.197,117.081 95.6156,211.633382 214.2536,211.372382 z M 804.3646,-2.3986388 C 861.29654,-2.4438537 917.36639,-23.704392 950.81014,-63.848142 831.95014,-117.55814 714.2291,-170.72671 595.7741,-224.25271 c -12.516,75.342 37.86283,160.878917 109.88383,198.555917 30.0675,15.7304997 64.54751,23.3252831 98.70667,23.2981542 z"
         transform="matrix(0.03931709,0,0,-0.03931709,-459.16675,396.69476)" /><path
         id="path161"
         style="fill:#ffffff;fill-opacity:1;stroke:#ffffff;stroke-width:1.13386;stroke-linecap:round;stroke-linejoin:miter;stroke-dasharray:none;stroke-opacity:1;paint-order:stroke markers fill"
         d="m -560.41061,366.47657 c -0.73865,-0.0131 -1.3364,0.56097 -1.34961,1.29687 -0.0132,0.73747 0.56195,1.33413 1.29883,1.34766 0.73759,0.0135 1.33592,-0.56149 1.34961,-1.29688 0.0137,-0.73586 -0.56337,-1.3346 -1.29883,-1.34765 z" /><path
         id="path122"
         d="M 0,0 C 0.348,18.716 -14.334,33.952 -33.04,34.284 -51.827,34.617 -67.022,20.009 -67.358,1.292 -67.694,-17.465 -53.071,-32.642 -34.329,-32.986 -15.569,-33.33 -0.348,-18.704 0,0 m -257.892,-638.609 c -86.508,208.202 -226.575,365.862 -409.451,488.67 3.981,3.63 5.858,5.786 8.138,7.356 81.264,55.987 162.666,111.772 243.829,167.904 68.35,47.269 138.927,89.67 219.839,112.872 123.957,35.547 236.14,9.708 339.834,-62.472 67.03,-46.658 119.027,-107.507 162.952,-175.697 1.91,-2.966 3.646,-6.086 5.072,-9.307 0.653,-1.473 0.355,-3.365 0.672,-7.407 -8.226,-0.405 -16.274,-1.979 -23.995,-0.995 -66.862,8.52 -125.685,-12.95 -181.517,-47.028 -90.124,-55.009 -159.589,-130.842 -218.873,-216.75 -49.772,-72.124 -93.997,-147.528 -130.416,-227.367 -4.01,-8.792 -9.17,-17.059 -16.084,-29.779"
         style="fill:url(#linearGradient158);fill-opacity:1;fill-rule:nonzero;stroke:none;filter:url(#filter347)"
         transform="matrix(0.03931709,0,0,-0.03931709,-559.11192,367.82457)"
         clip-path="url(#clipPath9)" /><path
         id="path124"
         clip-path="url(#clipPath31)"
         style="fill:url(#linearGradient147);fill-opacity:1;fill-rule:nonzero;stroke:none;filter:url(#filter347)"
         d="m -833.19943,182.70196 c -138.376,-2.743 -245.16457,-112.7086 -245.10257,-215.9426 -0.8,-121.794 36.8407,-189.1674 105.61171,-239.1414 62.164,-45.175 132.19502,-54.59979 206.05702,-37.00879 22.778,5.425 31.52975,22.95698 26.42775,46.64598 -3.993,18.54 -22.77944,29.91144 -43.81444,26.47744 -5.249,-0.857 -10.40901,-1.95823 -15.64801,-2.88123 -90.5,-15.939 -180.8104,44.11688 -199.4004,132.58588 -19.98503,95.106996 35.71871,187.913337 128.31371,207.69634 28.034,5.99 58.52758,1.49473 87.82758,0.34773 22.578,-0.885 39.74127,9.22772 42.92027,27.96772 4.179,24.632 -5.55945,41.13252 -30.00445,45.95052 -20.773,4.094 -42.15117,7.71941 -63.18817,7.30241 z m 2400.75303,-0.14903 c -9.116,0.005 -18.3029,-3.58616 -25.4342,-11.42554 -6.699,-7.363 -10.5661,-19.75144 -10.8791,-30.00444 -1.22,-40.01 -0.4968,-80.098088 -0.4968,-125.035088 -9.367,5.044 -14.4467,7.629009 -19.3737,10.432009 -119.802,68.182 -271.9802,-18.187027 -274.6102,-155.884031 -1.895,-99.197 78.9902,-183.50555 174.4132,-188.02455 105.519,-4.996 193.697,80.22184 193.936,182.60984 0.208,89.180004 0.079,178.376209 -0.099,267.55621 -0.015,7.605 -0.4318,15.50171 -2.4838,22.75171 -4.8232,17.0425 -19.7789,27.01551 -34.9721,27.02388 z m 854.7293,-0.24838 c -1.1315,-0.0154 -2.281,-0.0787 -3.4277,-0.19871 -18.126,-1.897 -31.9566,-16.84456 -32.5876,-35.81656 -0.392,-11.81 -0.145,-23.64684 -0.149,-35.46884 -0.01,-30.014997 0,-60.047054 0,-93.739054 -7.795,3.455 -11.6382,4.666292 -15.0022,6.706292 -30.169,18.302 -62.7069,25.990938 -98.0609,25.632938 -121.703,-1.229 -209.4216,-121.255349 -172.6746,-237.154346 27.652,-87.215 112.4493,-140.72163 202.6293,-127.86663 89.878,12.812 156.9803,90.13811 157.3743,182.26211 0.378,88.663995 0.086,177.30056 -0.05,265.96656 -0.01,7.042 -0.3771,14.2994 -1.9871,21.1124 -4.1222,17.45063 -19.0932,28.79439 -36.0649,28.56384 z m -1288.0551,-0.59612 c -23.737,0.482 -43.0017,-17.94501 -43.4667,-41.57901 -0.479,-24.223 18.9825,-44.68161 42.5725,-44.70861 22.824,-0.027 42.5783,19.75127 42.9203,42.92027 0.348,23.522 -18.4001,42.88835 -42.0261,43.36735 z M -109.81411,50.910903 c -20.07748,0.310711 -40.65048,-3.562909 -61.54886,-11.425534 -56.57,-21.284 -91.95545,-64.751143 -95.82545,-125.333143 -4.177,-65.349996 -1.51452,-131.162566 -0.99352,-196.767566 0.159,-19.931 16.01791,-33.66525 35.91591,-34.17725 23.504,-0.606 38.64314,14.68416 38.79714,40.63516 0.34,57.337 -0.33162,114.6968 0.24838,172.0288 0.447,44.094002 33.24785,77.538101 75.35885,78.389101 44.485998,0.899 79.596058,-32.529193 79.929058,-77.147191 0.428,-57.336 -0.05929,-114.69181 0.198705,-172.02881 0.101,-22.535 11.184892,-37.75862 28.8618921,-41.33062 25.7419999,-5.201 45.8778689,10.70088 46.0498689,37.45588 0.372,57.927 -0.42159,115.84847 0.39741,173.76747 0.661,46.673999 34.921088,79.802948 80.078086,79.332948 43.874,-0.456 75.41488,-34.172617 75.50788,-81.071618 0.11,-55.565 -0.14065,-111.14945 0.0994,-166.71345 0.116,-26.923 15.20711,-43.382 38.64811,-43.268 23.449,0.115 36.37836,14.81551 36.46236,42.42351 0.173,57.339 0.39632,114.6938 -0.0497,172.0288 -0.777,100.2500024 -90.67537,170.625299 -188.819365,148.631299 -31.077,-6.964 -55.976974,-24.152928 -79.48197406,-46.3479276 -5.51900004,5 -10.12822294,9.4586123 -15.00222294,13.5616126 -29.361875,24.716875 -61.369469,36.838677 -94.831928,37.356529 z M 2708.1199,50.016731 c -15.1458,0.576952 -30.4554,-0.735378 -45.5531,-4.123128 -82.656,-18.547 -142.8285,-91.573435 -144.4585,-175.307433 -2.171,-111.396 94.1125,-200.09421 204.9145,-186.23621 72.787,9.104 124.4474,48.68977 150.7674,118.17977 8.316,21.953 -0.3877,41.85279 -18.7777,49.12979 -21.369,8.456 -39.0251,-0.74498 -50.7691,-22.40398 -9.117,-16.817 -19.7858,-33.99069 -33.6308,-46.84469 -40.44,-37.546 -111.4122,-33.19931 -144.8062,8.79269 6.052,3.004 10.6923,5.49414 15.4493,7.65014 67.848,30.751 135.7985,61.28245 203.5235,92.29845 28.141,12.886999 34.2224,31.393367 20.6654,59.015367 -29.0957,59.2800001 -91.6927,97.349108 -157.3247,99.849234 z m -863.7703,-0.347734 c -8.0818,-0.470034 -16.3622,-1.467137 -24.8381,-2.980574 -75.664,-13.51 -125.2632,-60.835599 -144.2102,-134.622599 -19.788,-77.059004 3.75,-143.536294 67.063,-191.899294 59.746,-45.638 125.8149,-49.24436 193.7869,-17.43636 7.391,3.459 14.5013,7.62524 22.0563,11.62424 2.556,-2.713 3.5591,-3.43919 4.1231,-4.42119 13.142,-22.86 26.8954,-30.47161 46.7454,-25.68261 18.226,4.398 26.5577,18.16517 26.5767,44.16217 0.032,46.05 -2.3002,92.22094 0.4968,138.09994 5.1413,84.324371 -70.5729,190.206786 -191.7999,183.156277 z m -2353.11354,-0.09935 c -103.674,0.231 -185.45971,-80.686661 -185.39171,-183.404667 0.069,-101.704 81.91415,-183.03493 184.24915,-183.05693 102.578,-0.022 184.29253,80.8942 184.49753,182.7092 0.207,102.339002 -80.80897,183.524397 -183.35497,183.752397 z m 883.59116,-0.248381 c -22.407,-0.445 -35.99565,-14.744873 -36.26365,-39.144873 -0.335,-30.727 -0.0764,-61.468094 -0.0994,-92.199094 -0.022,-28.366999 -0.223,-56.729399 0,-85.095399 0.595,-75.892 63.18267,-144.19211 136.75867,-149.42611 86.582,-6.16 160.92405,48.02068 168.15405,129.85368 5.855,66.269 2.46928,133.375878 3.17928,200.095878 0.011,1.169 -0.24308,2.314336 -0.44708,3.477336 -3.273,18.667 -16.79134,31.31623 -34.62434,32.33923 -19.754,1.134 -34.28352,-9.085188 -39.04552,-28.663188 -1.928,-7.926 -2.40013,-16.3847367 -2.43413,-24.5897367 -0.224,-53.1880003 -0.38836,-106.3730693 -0.0994,-159.5600693 0.109,-19.85 -5.51061,-37.25502 -18.77761,-52.01102 -22.116,-24.6 -56.55788,-32.74537 -87.62888,-20.96337 -29.322,11.119 -49.53726,39.87542 -49.82526,73.12342 -0.501,57.912 0.0836,115.854471 -0.39741,173.767471 -0.206,24.912 -15.31041,39.455845 -38.44941,38.995845 z m 489.31091,-0.04968 c -5.32977,0.126915 -10.72939,0.06918 -16.19446,-0.248381 -71.803,-4.172 -135.83867,-73.10842 -136.75867,-147.53842 -0.351,-28.366995 -0.0447,-56.722395 -0.0497,-85.095395 -0.005,-31.918 -0.40798,-63.86778 0.14902,-95.77578 0.445,-25.481 20.61673,-41.41176 45.30473,-36.85976 18.016,3.321 29.36101,18.36551 29.45801,40.73451 0.245,56.152 0.0867,112.29911 0.0497,168.45211 -0.017,24.997003 8.11599,46.722088 27.61999,62.741088 25.602,21.028 54.85498,25.671534 84.69798,11.425534 28.907,-13.799 44.43885,-37.559311 44.21185,-70.838312 -0.383,-56.151 -0.47465,-112.30511 0.0993,-168.45211 0.295,-28.812 15.4486,-44.95991 39.4926,-44.50991 23.14392,0.433 36.92882,16.71526 37.30682,44.60926 0.2871,21.275 0.4027,42.55996 0.05,63.83396 -0.716,43.093 1.4363,86.51721 -3.4277,129.158213 -8.6015,75.3928129 -72.06278,126.459667 -152.00922,128.363393 z m 269.94067,-0.04968 c -22.384,0.29 -38.6778,-14.639579 -38.8468,-39.3435787 -0.653,-95.7010003 -0.7034,-191.4276373 -0.099,-287.1286473 0.16,-25.366 17.1918,-40.43825 40.5358,-39.39325 21.646,0.97 33.9939,15.56257 34.0779,41.03257 0.159,47.262 0.025,94.51397 0,141.77597 -0.026,47.263008 0.1343,94.513984 -0.05,141.7759841 -0.104,26.4629999 -12.8808,40.9869519 -35.6178,41.2809519 z m 719.3118,-74.713058 c 60.331,-0.1 107.5317,-47.654518 107.4497,-108.244508 -0.083,-60.879 -47.0064,-108.00718 -107.6484,-108.14517 -61.229,-0.139 -109.2603,48.07672 -108.8903,109.28772 0.364,60.002994 48.438,107.201958 109.089,107.101958 z m 851.5004,-0.09935 c 28.2033,-0.859736 55.4146,-12.136707 70.6396,-32.438582 -59.788,-26.988 -118.9848,-53.698526 -178.6358,-80.624526 -8.939,36.459 19.1683,84.239185 58.5683,103.078185 15.2318,7.2825 32.5059,10.500765 49.4279,9.984923 z m -428.4079,-0.198705 c 59.802,-0.009 108.1433,-47.885755 108.7413,-107.747753 0.597,-59.794 -48.7394,-108.97463 -109.1884,-108.84063 -60.362,0.134 -109.0736,48.19802 -108.8406,107.40002 0.238,60.387997 49.1007,109.198363 109.2877,109.188363 z m -854.928,-0.04968 c 59.467,-0.161 108.6169,-49.517251 108.1949,-108.592253 -0.429,-60.095 -48.5263,-107.89079 -108.5923,-107.89679 -60.593,-0.005 -109.2663,47.832 -109.1883,107.251 0.078,60.411001 49.2157,109.402043 109.5857,109.238043 z m -1930.86548,-0.198705 c 60.064,-0.411 107.74578,-48.508632 107.89678,-108.840638 0.148,-59.576 -48.52598,-107.52567 -108.93998,-107.30067 -59.717,0.222 -108.46916,49.11123 -108.14516,108.44323 0.325,59.314999 49.80436,108.105078 109.18836,107.698078 z"
         transform="matrix(0.03931709,0,0,-0.03931709,-477.67898,365.18722)" /><path
         id="path142"
         clip-path="url(#clipPath3)"
         style="fill:url(#linearGradient149);fill-opacity:1;fill-rule:nonzero;stroke:none;filter:url(#filter347)"
         d="m 194.76191,2269.2913 c -114.348006,4.131 -227.896552,-5.9597 -340.38156,-27.6697 -136.727,-26.389 -267.31621,-70.7927 -392.29321,-131.9897 -10.049,-4.921 -16.72009,-9.6074 -12.56809,-22.6524 15.05,-47.288 29.34717,-94.8094 44.16217,-142.1734 1.344,-4.298 4.29238,-8.0839 7.15338,-13.3629 323.071,166.529 660.52662,208.3423 1010.56362,112.2683 351.256,-96.409 621.62658,-305.0686 809.72258,-615.9356 309.15,-510.9361 253.0452,-1194.5597 -191.0548,-1652.5297 -203.21192,-209.559 -449.24989,-341.80828 -736.94689,-394.28028 -180.06336,-32.84063 -359.690013,-29.16628 -542.26577,10.77974 -45.41724,-30.44521 -87.21258,-55.25826 -125.78022,-75.50788 -35.85119,-18.82341 -68.95144,-33.72008 -99.55117,-45.45375 47.29821,-16.96393 95.7579,-31.7809 145.35266,-44.50991 132.09899,-33.905 266.23084,-45.58668 402.47684,-43.31768 81.248,1.352 161.83455,5.32547 241.72455,19.72147 311.506,56.138 581.43044,194.34639 808.9775,413.90239 143.313,138.281 254.8797,299.424725 335.9107,481.362725 81.046,181.972005 125.1382,372.993145 130.9962,571.823145 2.253,76.494 -2.4272,153.56394 -9.6372,229.85194 -15.485,163.81999 -60.397,320.37309 -129.655,469.49009 -129.118,277.996 -323.0651,499.8132 -582.40413,663.7242 -236.413,149.419 -495.53916,226.3819 -774.50216,236.4589 z m -790.64694,-191.0548 c -7.699,-4.101 -12.89112,-6.6739 -17.93312,-9.5379 -164.216,-93.268 -306.03096,-213.2192 -427.31495,-357.7682 -8.763,-10.443 -9.7177,-18.545 -2.0367,-29.607 9.762,-14.058 17.5399,-29.5241 27.3219,-43.5661 21.82399,-31.328 44.37911,-62.1323 68.10611,-95.2293 6.918,8.668 11.05534,14.2587 15.59834,19.5227 33.963,39.349 66.46571,80.0987 102.38271,117.5837 68.493,71.484 144.79977,133.9774 227.26877,188.9684 6.749,4.5 14.50311,14.1027 14.40611,21.2117 -0.783,57.255 -3.29071,114.4461 -5.41471,171.6811 -0.181,4.864 -1.35746,9.7059 -2.38446,16.7409 z m -506.64787,-448.03 c -5.614,-7.408 -9.6226,-12.3754 -13.2636,-17.5854 -171.029,-244.695 -263.5174,-516.5075 -278.8824,-814.19348 -6.664,-129.112 3.0958,-257.51068 29.8058,-384.24568 56.071,-266.04567 170.6837,-499.228855 344.3556,-698.84528 65.81826,-26.1769 138.02896,-47.17348 214.25362,-61.69789 43.76662,-8.33962 88.84953,-14.56034 134.8213,-18.3802 -4.2791,1.62775 -8.26473,3.86063 -11.42553,6.55726 -45.4,38.724 -92.19857,76.17309 -134.47357,118.13009 -113.039,112.19 -203.79492,240.66820084 -271.13292,385.23921 -112.49,241.508 -150.5262,494.82079 -117.3352,758.60579 22.167,176.17598 77.6931,341.77268 165.2231,496.56368 3.974,7.028 4.7061,18.3717 2.1361,26.1297 -8.508,25.674 -20.8172,50.1179 -28.6632,75.9549 -11.303,37.222 -19.9177,75.2591 -29.8057,112.9141 -1.098,4.181 -3.0564,8.1692 -5.6134,14.8532 z M 213.09244,-224.5551 c -4.08579,-20.42241 -11.17411,-41.65084 -21.60916,-63.48622 11.22424,21.09926 18.34134,42.27414 21.60916,63.48622 z M 60.934134,-447.15431 c -28.880592,-24.63077 -56.6781644,-47.40101 -83.406397,-68.45385 13.294917,9.93537 26.4278492,20.08895 39.293901,30.55088 15.067293,12.2517 29.80319,24.8722 44.112496,37.90297 z"
         transform="matrix(0.03931709,0,0,-0.03931709,-598.71652,421.00709)" /><path
         id="path144"
         clip-path="url(#clipPath3)"
         style="fill:url(#linearGradient157);fill-opacity:1;fill-rule:nonzero;stroke:none;filter:url(#filter347)"
         d="m -545.86106,2104.9126 c -0.51905,-0.3965 -1.08061,-0.7685 -1.53996,-1.1922 0.45918,0.4226 1.02126,0.7966 1.53996,1.1922 z m 668.89049,-10.581 c -42.543427,-0.6862 -84.896533,-3.4809 -127.0221338,-8.296 84.2523748,9.6309 169.3272038,11.0614 255.2364838,4.0735 -42.9542,3.4942 -85.67093,4.9086 -128.21435,4.2225 z m 128.21435,-4.2225 c 85.90929,-6.9879 172.64519,-22.3791 260.15444,-46.3976 -87.50925,24.0185 -174.24603,39.4092 -260.15444,46.3976 z M -1038.4506,1426.4843 c 1.2714,-3.8381 1.7286,-8.5774 1.3909,-13.2139 0.3419,4.6588 -0.1151,9.3625 -1.3909,13.2139 z m 1.3413,-13.7107 c -0.1898,-2.2223 -0.535,-4.3937 -1.0929,-6.4579 0.5533,2.0528 0.9031,4.2476 1.0929,6.4579 z m 2588.7775,-43.6654 c 34.6223,-74.544 63.1768,-150.9666 84.9961,-229.2061 -21.8109,78.2528 -50.3671,154.6476 -84.9961,229.2061 z m -2865.2755,-143.7133 c -46.4242,-135.7564 -73.3891,-278.12428 -81.0716,-426.96728 7.6825,148.84299 34.6503,291.21648 81.0716,426.96728 z M 8.4263546,2.8130343 C 6.5179672,2.810588 4.3285824,1.4093014 -0.01860511,-0.01851114 11.899395,-15.649511 23.278881,-29.630713 33.661881,-44.329713 c 36.024,-51.006 39.756112,-101.786927 7.501112,-146.693927 -13.528,-18.832 -31.5120251,-35.49182 -50.3220251,-49.27882 -54.2499999,-39.759 -117.0418979,-61.79319 -181.2188979,-78.83619 -152.973,-40.624 -308.54992,-58.93539 -466.90692,-48.73239 -5.28333,0.3404 -11.07708,1.79238 -16.29381,4.07346 0.71203,-0.31309 1.40423,-0.66546 2.13608,-0.94385 -45.97177,3.81986 -91.05468,10.04058 -134.8213,18.3802 -76.21195,14.52199 -148.3945,35.52708 -214.20392,61.69789 37.82047,-43.4691 78.42808,-85.35303 121.8558,-125.6312 154.47753,-143.27401 329.55765,-249.11875 524.18362,-318.92143 30.59234,11.73211 63.66065,26.63577 99.5015,45.45375 38.56612,20.24882 80.36506,45.06431 125.78022,75.50788 -0.30265,0.0662 -0.59151,0.13229 -0.89417,0.19871 5.928,4.731 8.43248,6.93204 11.12748,8.89204 45.601552,33.1807 91.987979,65.38366 136.4606094,99.94859 11.5397077,9.27041 23.3941166,19.10097 35.3198026,29.01092 59.055062,49.94809 113.163588,105.04541 153.102148,172.37654 2.36029,3.97914 4.34275,7.98849 6.40824,11.97197 9.79528,20.91108 16.65694,41.29776 20.61563,60.90306 -0.19432,-1.24286 -0.52432,-2.48311 -0.74514,-3.72571 7.96196,44.82417 -1.12609,89.8945 -24.93747,135.119357 -38.06,72.283 -105.578706,89.0782211 -178.4867055,96.3222211 -0.125375,0.012437 -0.2701841,0.049839 -0.3974099,0.049676 z M 209.51575,-241.8921 c -0.41678,-1.63985 -0.97676,-3.27869 -1.44061,-4.91795 0.46312,1.63784 1.02445,3.27945 1.44061,4.91795 z m -5.41471,-17.48604 c -0.69968,-1.95752 -1.51692,-3.9053 -2.28511,-5.86179 0.76799,1.95709 1.58576,3.90372 2.28511,5.86179 z m -7.1037,-17.18797 c -0.96,-2.08069 -1.94156,-4.1799 -2.98058,-6.25921 1.03983,2.08067 2.02008,4.17738 2.98058,6.25921 z m -876.33844,-84.20122 c 1.4977,-0.9664 3.09241,-1.84738 4.76892,-2.63284 -1.68328,0.78325 -3.26489,1.66856 -4.76892,2.63284 z"
         transform="matrix(0.03931709,0,0,-0.03931709,-598.71652,421.00709)" /><path
         id="path121"
         d="m 0,0 c 6.772,-14.27 13.676,-28.479 20.296,-42.818 57.234,-123.971 129.688,-237.327 230.072,-331.432 73.201,-68.624 157.123,-121.16 247.096,-164.357 18.516,-8.891 29.198,-20.709 35.941,-40.171 41.322,-119.28 91.05,-234.782 162.019,-339.925 61.799,-91.557 136.339,-172.184 216.116,-248.248 118.057,-112.562 236.979,-224.261 353.162,-338.729 63.204,-62.272 119.796,-130.91 161.777,-209.981 12.407,-23.369 22.084,-48.184 30.29,-74.277 -17.5404,10.9257 -27.8777,99.5618 -220.651,235.743 -119.474,84.4 -247.266,155.229 -373.727,228.23 -104.023,60.047 -206.377,122.614 -299.05,199.683 -119.224,99.149 -212.76,219.412 -290.476,352.652 -77.157,132.279 -139.144,271.74 -184.376,417.65 -34.734,112.047 -60.397,226.903 -89.992,340.537 -1.163,4.463 -1.26,9.202 -1.854,13.812 C -2.238,-1.087 -1.119,-0.544 0,0"
         style="fill:url(#linearGradient155);fill-opacity:1;fill-rule:nonzero;stroke:#ffffff;stroke-width:28.8388;stroke-linecap:round;stroke-linejoin:miter;stroke-dasharray:none;stroke-opacity:1;paint-order:stroke markers fill;filter:url(#filter347)"
         transform="matrix(0.03931709,0,0,-0.03931709,-643.26074,348.85739)"
         clip-path="url(#clipPath7)"
         sodipodi:nodetypes="cssscsssscsssssscc" /><path
         id="path120"
         d="M 0,0 C 12.063,-47.935 22.031,-94.653 35.625,-140.293 83.771,-301.937 158.877,-448.72 281.5,-567.354 c 85.963,-83.167 185.044,-148.829 289.217,-206.865 101.728,-56.675 206.218,-108.785 305.367,-169.619 197.966,-121.462 352.365,-283.646 439.85,-502.15 86.857,-216.936 68.04,-428.3 -42.299,-632.342 -81.743,-151.161 -196.805,-273.91 -330.884,-379.822 -1.268,-1.003 -3.058,-1.346 -8.968,-3.833 8.019,14.361 13.963,25.504 20.361,36.38 33.812,57.478 58.673,118.534 73.946,183.471 26.258,111.64 4.241,215.788 -55.85,310.749 -34.249,54.122 -72.608,107.342 -117.46,152.734 -113.397,114.764 -231.959,224.414 -347.508,337.078 -43.569,42.48 -83.617,88.553 -126.881,131.364 -106.934,105.813 -182.109,231.869 -238.496,369.964 C 79.599,-787.678 43.453,-628.317 21.116,-465.562 2.286,-328.363 -5.36,-190.454 -3.314,-52.013 -3.065,-35.123 -1.205,-18.257 0,0"
         style="fill:url(#linearGradient153);fill-opacity:1;fill-rule:nonzero;stroke:#ffffff;stroke-width:28.8388;stroke-linecap:round;stroke-linejoin:miter;stroke-dasharray:none;stroke-opacity:1;paint-order:stroke markers fill;filter:url(#filter347)"
         transform="matrix(0.03931709,0,0,-0.03931709,-621.47536,336.02418)"
         clip-path="url(#clipPath5)" /></g></g></svg>
