<?xml version="1.0" encoding="UTF-8" standalone="no"?>
<!-- Created with Inkscape (http://www.inkscape.org/) -->

<svg
   width="32.126137mm"
   height="32.11816mm"
   viewBox="0 0 32.126137 32.11816"
   version="1.1"
   id="svg1"
   xml:space="preserve"
   xmlns="http://www.w3.org/2000/svg"
   xmlns:svg="http://www.w3.org/2000/svg"><defs
     id="defs1"><clipPath
       clipPathUnits="userSpaceOnUse"
       id="clipPath3"><path
         d="M 0,4251.968 H 13181.103 V 0 H 0 Z"
         transform="translate(-3204.4425,-1399.5319)"
         id="path3" /></clipPath><clipPath
       clipPathUnits="userSpaceOnUse"
       id="clipPath5"><path
         d="M 0,4251.968 H 13181.103 V 0 H 0 Z"
         transform="translate(-2625.589,-3561.0067)"
         id="path5" /></clipPath><clipPath
       clipPathUnits="userSpaceOnUse"
       id="clipPath7"><path
         d="M 0,4251.968 H 13181.103 V 0 H 0 Z"
         transform="translate(-2071.4944,-3234.6039)"
         id="path7" /></clipPath><clipPath
       clipPathUnits="userSpaceOnUse"
       id="clipPath9"><path
         d="M 0,4251.968 H 13181.103 V 0 H 0 Z"
         transform="translate(-4211.755,-2752.1882)"
         id="path9" /></clipPath><clipPath
       clipPathUnits="userSpaceOnUse"
       id="clipPath29"><path
         d="M 0,4251.968 H 13181.103 V 0 H 0 Z"
         transform="translate(-2256.6907,-2942.0375)"
         id="path29" /></clipPath></defs><g
     id="g1"
     transform="matrix(0.26458334,0,0,0.26458333,207.12442,-87.561882)"><g
       id="g2"
       style="fill:#ffffff"><path
         id="path2"
         d="m 0,0 c 4.637,1.523 6.808,2.987 8.814,2.788 72.908,-7.244 140.415,-24.088 178.475,-96.371 36.086,-68.538 38.758,-136.7 -1.299,-204.231 -43.714,-73.696 -103.388,-133.791 -169.151,-187.265 -49.867,-40.549 -103.696,-76.233 -155.745,-114.105 -2.695,-1.96 -5.226,-4.144 -11.154,-8.875 182.882,-40.129 362.828,-43.88 543.184,-10.986 287.697,52.472 533.751,184.737 736.963,394.296 444.1,457.97 500.206,1141.588 191.056,1652.524 -188.096,310.867 -458.489,519.516 -809.745,615.925 -350.037,96.074 -687.502,54.255 -1010.573,-112.274 -2.861,5.279 -5.779,9.086 -7.123,13.384 -14.815,47.364 -29.134,94.885 -44.184,142.173 -4.152,13.045 2.543,17.732 12.592,22.653 124.977,61.197 255.538,105.615 392.265,132.004 112.485,21.71 226.052,31.784 340.4,27.653 278.963,-10.077 538.052,-87.04 774.465,-236.459 259.339,-163.911 453.334,-385.731 582.452,-663.727 69.258,-149.117 114.13,-305.66 129.615,-469.48 7.21,-76.288 11.924,-153.388 9.671,-229.882 C 1685.12,470.915 1641.018,279.922 1559.972,97.95 1478.941,-83.988 1367.36,-245.148 1224.047,-383.429 996.5,-602.985 726.589,-741.169 415.083,-797.307 c -79.89,-14.396 -160.5,-18.365 -241.748,-19.717 -136.246,-2.269 -270.352,9.388 -402.451,43.293 -253.666,65.106 -477.483,185.34 -669.499,363.43 -242.858,225.245 -397.953,500.499 -466.236,824.488 -26.71,126.735 -36.515,255.117 -29.851,384.229 15.365,297.686 107.865,569.521 278.894,814.216 3.641,5.21 7.658,10.159 13.272,17.567 2.557,-6.684 4.506,-10.641 5.604,-14.822 9.888,-37.655 18.494,-75.692 29.797,-112.914 7.846,-25.837 20.188,-50.287 28.696,-75.961 2.57,-7.758 1.848,-19.129 -2.126,-26.157 -87.53,-154.791 -143.089,-320.367 -165.256,-496.543 -33.191,-263.785 4.877,-517.114 117.367,-758.622 67.338,-144.571 158.098,-273.036 271.137,-385.226 42.275,-41.957 89.052,-79.426 134.452,-118.15 6.578,-5.612 16.797,-9.102 25.582,-9.668 158.357,-10.203 313.929,8.122 466.902,48.746 64.177,17.043 126.969,39.049 181.219,78.808 18.81,13.787 36.818,30.461 50.346,49.293 32.255,44.907 28.516,95.68 -7.508,146.686 C 23.293,-29.632 11.918,-15.631 0,0"
         style="fill:#ffffff;fill-opacity:1;fill-rule:nonzero;stroke:none"
         transform="matrix(0.03931709,0,0,-0.03931709,-727.91742,420.20029)"
         clip-path="url(#clipPath3)" /><path
         id="path4"
         d="M 0,0 C 12.063,-47.935 22.031,-94.653 35.625,-140.293 83.771,-301.937 158.877,-448.72 281.5,-567.354 c 85.963,-83.167 185.044,-148.829 289.217,-206.865 101.728,-56.675 206.218,-108.785 305.367,-169.619 197.966,-121.462 352.365,-283.646 439.85,-502.15 86.857,-216.936 68.04,-428.3 -42.299,-632.342 -81.743,-151.161 -196.805,-273.91 -330.884,-379.822 -1.268,-1.003 -3.058,-1.346 -8.968,-3.833 8.019,14.361 13.963,25.504 20.361,36.38 33.812,57.478 58.673,118.534 73.946,183.471 26.258,111.64 4.241,215.788 -55.85,310.749 -34.249,54.122 -72.608,107.342 -117.46,152.734 -113.397,114.764 -231.959,224.414 -347.508,337.078 -43.569,42.48 -83.617,88.553 -126.881,131.364 -106.934,105.813 -182.109,231.869 -238.496,369.964 C 79.599,-787.678 43.453,-628.317 21.116,-465.562 2.286,-328.363 -5.36,-190.454 -3.314,-52.013 -3.065,-35.123 -1.205,-18.257 0,0"
         style="fill:#ffffff;fill-opacity:1;fill-rule:nonzero;stroke:none"
         transform="matrix(0.03931709,0,0,-0.03931709,-750.67626,335.21738)"
         clip-path="url(#clipPath5)" /><path
         id="path6"
         d="m 0,0 c 6.772,-14.27 13.676,-28.479 20.296,-42.818 57.234,-123.971 129.688,-237.327 230.072,-331.432 73.201,-68.624 157.123,-121.16 247.096,-164.357 18.516,-8.891 29.198,-20.709 35.941,-40.171 41.322,-119.28 91.05,-234.782 162.019,-339.925 61.799,-91.557 136.339,-172.184 216.116,-248.248 118.057,-112.562 236.979,-224.261 353.162,-338.729 63.204,-62.272 119.796,-130.91 161.777,-209.981 12.407,-23.369 22.084,-48.184 30.29,-74.277 -1.066,0.664 -2.652,1.07 -3.124,2.027 -49.185,99.597 -128.747,170.999 -217.527,233.716 -119.474,84.4 -247.266,155.229 -373.727,228.23 -104.023,60.047 -206.377,122.614 -299.05,199.683 -119.224,99.149 -212.76,219.412 -290.476,352.652 -77.157,132.279 -139.144,271.74 -184.376,417.65 -34.734,112.047 -60.397,226.903 -89.992,340.537 -1.163,4.463 -1.26,9.202 -1.854,13.812 C -2.238,-1.087 -1.119,-0.544 0,0"
         style="fill:#ffffff;fill-opacity:1;fill-rule:nonzero;stroke:none"
         transform="matrix(0.03931709,0,0,-0.03931709,-772.46164,348.05059)"
         clip-path="url(#clipPath7)" /><path
         id="path8"
         d="M 0,0 C 0.348,18.716 -14.334,33.952 -33.04,34.284 -51.827,34.617 -67.022,20.009 -67.358,1.292 -67.694,-17.465 -53.071,-32.642 -34.329,-32.986 -15.569,-33.33 -0.348,-18.704 0,0 m -257.892,-638.609 c -86.508,208.202 -226.575,365.862 -409.451,488.67 3.981,3.63 5.858,5.786 8.138,7.356 81.264,55.987 162.666,111.772 243.829,167.904 68.35,47.269 138.927,89.67 219.839,112.872 123.957,35.547 236.14,9.708 339.834,-62.472 67.03,-46.658 119.027,-107.507 162.952,-175.697 1.91,-2.966 3.646,-6.086 5.072,-9.307 0.653,-1.473 0.355,-3.365 0.672,-7.407 -8.226,-0.405 -16.274,-1.979 -23.995,-0.995 -66.862,8.52 -125.685,-12.95 -181.517,-47.028 -90.124,-55.009 -159.589,-130.842 -218.873,-216.75 -49.772,-72.124 -93.997,-147.528 -130.416,-227.367 -4.01,-8.792 -9.17,-17.059 -16.084,-29.779"
         style="fill:#ffffff;fill-opacity:1;fill-rule:nonzero;stroke:none"
         transform="matrix(0.03931709,0,0,-0.03931709,-688.31282,367.01777)"
         clip-path="url(#clipPath9)" /><path
         id="path28"
         d="m 0,0 c -23.727,33.097 -46.266,63.928 -68.09,95.256 -9.782,14.042 -17.553,29.482 -27.315,43.54 -7.681,11.062 -6.744,19.196 2.019,29.639 121.284,144.549 263.117,264.465 427.333,357.733 5.042,2.864 10.229,5.471 17.928,9.572 1.027,-7.035 2.192,-11.864 2.373,-16.728 2.124,-57.235 4.642,-114.467 5.425,-171.722 0.097,-7.109 -7.679,-16.671 -14.428,-21.171 C 262.776,271.128 186.472,208.623 117.979,137.139 82.062,99.654 49.59,58.871 15.627,19.522 11.084,14.258 6.918,8.668 0,0"
         style="fill:#ffffff;fill-opacity:1;fill-rule:nonzero;stroke:none"
         transform="matrix(0.03931709,0,0,-0.03931709,-765.18026,359.55345)"
         clip-path="url(#clipPath29)" /></g></g></svg>
