<?xml version="1.0" encoding="UTF-8" standalone="no"?>
<!-- Created with Inkscape (http://www.inkscape.org/) -->

<svg
   width="32.125793mm"
   height="32.118332mm"
   viewBox="0 0 32.125793 32.118332"
   version="1.1"
   id="svg1"
   xml:space="preserve"
   xmlns:xlink="http://www.w3.org/1999/xlink"
   xmlns="http://www.w3.org/2000/svg"
   xmlns:svg="http://www.w3.org/2000/svg"><defs
     id="defs1"><linearGradient
       id="swatch160"><stop
         style="stop-color:#ff00ff;stop-opacity:1;"
         offset="0"
         id="stop160" /></linearGradient><linearGradient
       id="linearGradient159"><stop
         style="stop-color:#3e7e97;stop-opacity:1;"
         offset="0"
         id="stop158" /><stop
         style="stop-color:#77bfbc;stop-opacity:1;"
         offset="1"
         id="stop159" /></linearGradient><clipPath
       clipPathUnits="userSpaceOnUse"
       id="clipPath3"><path
         d="M 0,4251.968 H 13181.103 V 0 H 0 Z"
         transform="translate(-3204.4425,-1399.5319)"
         id="path3" /></clipPath><clipPath
       clipPathUnits="userSpaceOnUse"
       id="clipPath5"><path
         d="M 0,4251.968 H 13181.103 V 0 H 0 Z"
         transform="translate(-2625.589,-3561.0067)"
         id="path5" /></clipPath><clipPath
       clipPathUnits="userSpaceOnUse"
       id="clipPath7"><path
         d="M 0,4251.968 H 13181.103 V 0 H 0 Z"
         transform="translate(-2071.4944,-3234.6039)"
         id="path7" /></clipPath><clipPath
       clipPathUnits="userSpaceOnUse"
       id="clipPath9"><path
         d="M 0,4251.968 H 13181.103 V 0 H 0 Z"
         transform="translate(-4211.755,-2752.1882)"
         id="path9" /></clipPath><filter
       style="color-interpolation-filters:sRGB"
       id="filter347"
       x="-0.013988979"
       y="-0.021026148"
       width="1.034701"
       height="1.0323223"><feFlood
         result="flood"
         in="SourceGraphic"
         flood-opacity="0.498039"
         flood-color="rgb(0,0,0)"
         id="feFlood346" /><feGaussianBlur
         result="blur"
         in="SourceGraphic"
         stdDeviation="2.000000"
         id="feGaussianBlur346" /><feOffset
         result="offset"
         in="blur"
         dx="0.000000"
         dy="1.000000"
         id="feOffset346" /><feComposite
         result="comp1"
         operator="in"
         in="flood"
         in2="offset"
         id="feComposite346" /><feComposite
         result="comp2"
         operator="over"
         in="SourceGraphic"
         in2="comp1"
         id="feComposite347" /></filter><filter
       style="color-interpolation-filters:sRGB"
       id="filter185"
       x="-0.029801819"
       y="-0.012688367"
       width="1.0663267"
       height="1.025102"><feFlood
         result="flood"
         in="SourceGraphic"
         flood-opacity="0.278431"
         flood-color="rgb(17,17,17)"
         id="feFlood184" /><feGaussianBlur
         result="blur"
         in="SourceGraphic"
         stdDeviation="0.800000"
         id="feGaussianBlur184" /><feOffset
         result="offset"
         in="blur"
         dx="0.000000"
         dy="1.300000"
         id="feOffset184" /><feComposite
         result="comp1"
         operator="in"
         in="flood"
         in2="offset"
         id="feComposite184" /><feComposite
         result="comp2"
         operator="over"
         in="SourceGraphic"
         in2="comp1"
         id="feComposite185" /></filter><linearGradient
       xlink:href="#linearGradient159"
       id="linearGradient84"
       gradientUnits="userSpaceOnUse"
       x1="-589.93121"
       y1="-526.78656"
       x2="181.62698"
       y2="21.747349" /><linearGradient
       xlink:href="#linearGradient159"
       id="linearGradient86"
       gradientUnits="userSpaceOnUse"
       x1="-724.8927"
       y1="-135.35228"
       x2="1091.6587"
       y2="1244.9834" /><linearGradient
       xlink:href="#linearGradient159"
       id="linearGradient87"
       gradientUnits="userSpaceOnUse"
       x1="-657.2478"
       y1="-701.20959"
       x2="59.903885"
       y2="-277.84821" /><linearGradient
       xlink:href="#linearGradient159"
       id="linearGradient88"
       gradientUnits="userSpaceOnUse"
       x1="382.62454"
       y1="-1162.5529"
       x2="742.31891"
       y2="-847.82031" /><linearGradient
       xlink:href="#linearGradient159"
       id="linearGradient89"
       gradientUnits="userSpaceOnUse"
       x1="833.1001"
       y1="-2156.0571"
       x2="839.50604"
       y2="-609.3714" /></defs><g
     id="g1"
     transform="matrix(0.26458334,0,0,0.26458333,283.80024,-50.998291)"><g
       id="g83"
       style="filter:url(#filter185)"
       transform="translate(-418.99999,-277)"><g
         id="g98"><path
           id="path77"
           style="fill:#ffffff;fill-opacity:1;stroke:#ffffff;stroke-width:1.13386;stroke-linecap:round;stroke-linejoin:miter;stroke-dasharray:none;stroke-opacity:1;paint-order:stroke markers fill"
           d="m -560.41061,366.47657 c -0.73865,-0.0131 -1.3364,0.56097 -1.34961,1.29687 -0.0132,0.73747 0.56195,1.33413 1.29883,1.34766 0.73759,0.0135 1.33592,-0.56149 1.34961,-1.29688 0.0137,-0.73586 -0.56337,-1.3346 -1.29883,-1.34765 z" /><path
           id="path78"
           d="M 0,0 C 0.348,18.716 -14.334,33.952 -33.04,34.284 -51.827,34.617 -67.022,20.009 -67.358,1.292 -67.694,-17.465 -53.071,-32.642 -34.329,-32.986 -15.569,-33.33 -0.348,-18.704 0,0 m -257.892,-638.609 c -86.508,208.202 -226.575,365.862 -409.451,488.67 3.981,3.63 5.858,5.786 8.138,7.356 81.264,55.987 162.666,111.772 243.829,167.904 68.35,47.269 138.927,89.67 219.839,112.872 123.957,35.547 236.14,9.708 339.834,-62.472 67.03,-46.658 119.027,-107.507 162.952,-175.697 1.91,-2.966 3.646,-6.086 5.072,-9.307 0.653,-1.473 0.355,-3.365 0.672,-7.407 -8.226,-0.405 -16.274,-1.979 -23.995,-0.995 -66.862,8.52 -125.685,-12.95 -181.517,-47.028 -90.124,-55.009 -159.589,-130.842 -218.873,-216.75 -49.772,-72.124 -93.997,-147.528 -130.416,-227.367 -4.01,-8.792 -9.17,-17.059 -16.084,-29.779"
           style="fill:url(#linearGradient84);fill-opacity:1;fill-rule:nonzero;stroke:none;filter:url(#filter347)"
           transform="matrix(0.03931709,0,0,-0.03931709,-559.11192,367.82457)"
           clip-path="url(#clipPath9)" /><path
           id="path80"
           clip-path="url(#clipPath3)"
           style="fill:url(#linearGradient86);fill-opacity:1;fill-rule:nonzero;stroke:none;filter:url(#filter347)"
           d="m 194.76191,2269.2913 c -114.348006,4.131 -227.896552,-5.9597 -340.38156,-27.6697 -136.727,-26.389 -267.31621,-70.7927 -392.29321,-131.9897 -10.049,-4.921 -16.72009,-9.6074 -12.56809,-22.6524 15.05,-47.288 29.34717,-94.8094 44.16217,-142.1734 1.344,-4.298 4.29238,-8.0839 7.15338,-13.3629 323.071,166.529 660.52662,208.3423 1010.56362,112.2683 351.256,-96.409 621.62658,-305.0686 809.72258,-615.9356 309.15,-510.9361 253.0452,-1194.5597 -191.0548,-1652.5297 -203.21192,-209.559 -449.24989,-341.80828 -736.94689,-394.28028 -180.06336,-32.84063 -359.690013,-29.16628 -542.26577,10.77974 -45.41724,-30.44521 -87.21258,-55.25826 -125.78022,-75.50788 -35.85119,-18.82341 -68.95144,-33.72008 -99.55117,-45.45375 47.29821,-16.96393 95.7579,-31.7809 145.35266,-44.50991 132.09899,-33.905 266.23084,-45.58668 402.47684,-43.31768 81.248,1.352 161.83455,5.32547 241.72455,19.72147 311.506,56.138 581.43044,194.34639 808.9775,413.90239 143.313,138.281 254.8797,299.424725 335.9107,481.362725 81.046,181.972005 125.1382,372.993145 130.9962,571.823145 2.253,76.494 -2.4272,153.56394 -9.6372,229.85194 -15.485,163.81999 -60.397,320.37309 -129.655,469.49009 -129.118,277.996 -323.0651,499.8132 -582.40413,663.7242 -236.413,149.419 -495.53916,226.3819 -774.50216,236.4589 z m -790.64694,-191.0548 c -7.699,-4.101 -12.89112,-6.6739 -17.93312,-9.5379 -164.216,-93.268 -306.03096,-213.2192 -427.31495,-357.7682 -8.763,-10.443 -9.7177,-18.545 -2.0367,-29.607 9.762,-14.058 17.5399,-29.5241 27.3219,-43.5661 21.82399,-31.328 44.37911,-62.1323 68.10611,-95.2293 6.918,8.668 11.05534,14.2587 15.59834,19.5227 33.963,39.349 66.46571,80.0987 102.38271,117.5837 68.493,71.484 144.79977,133.9774 227.26877,188.9684 6.749,4.5 14.50311,14.1027 14.40611,21.2117 -0.783,57.255 -3.29071,114.4461 -5.41471,171.6811 -0.181,4.864 -1.35746,9.7059 -2.38446,16.7409 z m -506.64787,-448.03 c -5.614,-7.408 -9.6226,-12.3754 -13.2636,-17.5854 -171.029,-244.695 -263.5174,-516.5075 -278.8824,-814.19348 -6.664,-129.112 3.0958,-257.51068 29.8058,-384.24568 56.071,-266.04567 170.6837,-499.228855 344.3556,-698.84528 65.81826,-26.1769 138.02896,-47.17348 214.25362,-61.69789 43.76662,-8.33962 88.84953,-14.56034 134.8213,-18.3802 -4.2791,1.62775 -8.26473,3.86063 -11.42553,6.55726 -45.4,38.724 -92.19857,76.17309 -134.47357,118.13009 -113.039,112.19 -203.79492,240.66820084 -271.13292,385.23921 -112.49,241.508 -150.5262,494.82079 -117.3352,758.60579 22.167,176.17598 77.6931,341.77268 165.2231,496.56368 3.974,7.028 4.7061,18.3717 2.1361,26.1297 -8.508,25.674 -20.8172,50.1179 -28.6632,75.9549 -11.303,37.222 -19.9177,75.2591 -29.8057,112.9141 -1.098,4.181 -3.0564,8.1692 -5.6134,14.8532 z M 213.09244,-224.5551 c -4.08579,-20.42241 -11.17411,-41.65084 -21.60916,-63.48622 11.22424,21.09926 18.34134,42.27414 21.60916,63.48622 z M 60.934134,-447.15431 c -28.880592,-24.63077 -56.6781644,-47.40101 -83.406397,-68.45385 13.294917,9.93537 26.4278492,20.08895 39.293901,30.55088 15.067293,12.2517 29.80319,24.8722 44.112496,37.90297 z"
           transform="matrix(0.03931709,0,0,-0.03931709,-598.71652,421.00709)" /><path
           id="path81"
           clip-path="url(#clipPath3)"
           style="fill:url(#linearGradient87);fill-opacity:1;fill-rule:nonzero;stroke:none;filter:url(#filter347)"
           d="m -545.86106,2104.9126 c -0.51905,-0.3965 -1.08061,-0.7685 -1.53996,-1.1922 0.45918,0.4226 1.02126,0.7966 1.53996,1.1922 z m 668.89049,-10.581 c -42.543427,-0.6862 -84.896533,-3.4809 -127.0221338,-8.296 84.2523748,9.6309 169.3272038,11.0614 255.2364838,4.0735 -42.9542,3.4942 -85.67093,4.9086 -128.21435,4.2225 z m 128.21435,-4.2225 c 85.90929,-6.9879 172.64519,-22.3791 260.15444,-46.3976 -87.50925,24.0185 -174.24603,39.4092 -260.15444,46.3976 z M -1038.4506,1426.4843 c 1.2714,-3.8381 1.7286,-8.5774 1.3909,-13.2139 0.3419,4.6588 -0.1151,9.3625 -1.3909,13.2139 z m 1.3413,-13.7107 c -0.1898,-2.2223 -0.535,-4.3937 -1.0929,-6.4579 0.5533,2.0528 0.9031,4.2476 1.0929,6.4579 z m 2588.7775,-43.6654 c 34.6223,-74.544 63.1768,-150.9666 84.9961,-229.2061 -21.8109,78.2528 -50.3671,154.6476 -84.9961,229.2061 z m -2865.2755,-143.7133 c -46.4242,-135.7564 -73.3891,-278.12428 -81.0716,-426.96728 7.6825,148.84299 34.6503,291.21648 81.0716,426.96728 z M 8.4263546,2.8130343 C 6.5179672,2.810588 4.3285824,1.4093014 -0.01860511,-0.01851114 11.899395,-15.649511 23.278881,-29.630713 33.661881,-44.329713 c 36.024,-51.006 39.756112,-101.786927 7.501112,-146.693927 -13.528,-18.832 -31.5120251,-35.49182 -50.3220251,-49.27882 -54.2499999,-39.759 -117.0418979,-61.79319 -181.2188979,-78.83619 -152.973,-40.624 -308.54992,-58.93539 -466.90692,-48.73239 -5.28333,0.3404 -11.07708,1.79238 -16.29381,4.07346 0.71203,-0.31309 1.40423,-0.66546 2.13608,-0.94385 -45.97177,3.81986 -91.05468,10.04058 -134.8213,18.3802 -76.21195,14.52199 -148.3945,35.52708 -214.20392,61.69789 37.82047,-43.4691 78.42808,-85.35303 121.8558,-125.6312 154.47753,-143.27401 329.55765,-249.11875 524.18362,-318.92143 30.59234,11.73211 63.66065,26.63577 99.5015,45.45375 38.56612,20.24882 80.36506,45.06431 125.78022,75.50788 -0.30265,0.0662 -0.59151,0.13229 -0.89417,0.19871 5.928,4.731 8.43248,6.93204 11.12748,8.89204 45.601552,33.1807 91.987979,65.38366 136.4606094,99.94859 11.5397077,9.27041 23.3941166,19.10097 35.3198026,29.01092 59.055062,49.94809 113.163588,105.04541 153.102148,172.37654 2.36029,3.97914 4.34275,7.98849 6.40824,11.97197 9.79528,20.91108 16.65694,41.29776 20.61563,60.90306 -0.19432,-1.24286 -0.52432,-2.48311 -0.74514,-3.72571 7.96196,44.82417 -1.12609,89.8945 -24.93747,135.119357 -38.06,72.283 -105.578706,89.0782211 -178.4867055,96.3222211 -0.125375,0.012437 -0.2701841,0.049839 -0.3974099,0.049676 z M 209.51575,-241.8921 c -0.41678,-1.63985 -0.97676,-3.27869 -1.44061,-4.91795 0.46312,1.63784 1.02445,3.27945 1.44061,4.91795 z m -5.41471,-17.48604 c -0.69968,-1.95752 -1.51692,-3.9053 -2.28511,-5.86179 0.76799,1.95709 1.58576,3.90372 2.28511,5.86179 z m -7.1037,-17.18797 c -0.96,-2.08069 -1.94156,-4.1799 -2.98058,-6.25921 1.03983,2.08067 2.02008,4.17738 2.98058,6.25921 z m -876.33844,-84.20122 c 1.4977,-0.9664 3.09241,-1.84738 4.76892,-2.63284 -1.68328,0.78325 -3.26489,1.66856 -4.76892,2.63284 z"
           transform="matrix(0.03931709,0,0,-0.03931709,-598.71652,421.00709)" /><path
           id="path82"
           d="m 0,0 c 6.772,-14.27 13.676,-28.479 20.296,-42.818 57.234,-123.971 129.688,-237.327 230.072,-331.432 73.201,-68.624 157.123,-121.16 247.096,-164.357 18.516,-8.891 29.198,-20.709 35.941,-40.171 41.322,-119.28 91.05,-234.782 162.019,-339.925 61.799,-91.557 136.339,-172.184 216.116,-248.248 118.057,-112.562 236.979,-224.261 353.162,-338.729 63.204,-62.272 119.796,-130.91 161.777,-209.981 12.407,-23.369 22.084,-48.184 30.29,-74.277 -17.5404,10.9257 -27.8777,99.5618 -220.651,235.743 -119.474,84.4 -247.266,155.229 -373.727,228.23 -104.023,60.047 -206.377,122.614 -299.05,199.683 -119.224,99.149 -212.76,219.412 -290.476,352.652 -77.157,132.279 -139.144,271.74 -184.376,417.65 -34.734,112.047 -60.397,226.903 -89.992,340.537 -1.163,4.463 -1.26,9.202 -1.854,13.812 C -2.238,-1.087 -1.119,-0.544 0,0"
           style="fill:url(#linearGradient88);fill-opacity:1;fill-rule:nonzero;stroke:#ffffff;stroke-width:28.8388;stroke-linecap:round;stroke-linejoin:miter;stroke-dasharray:none;stroke-opacity:1;paint-order:stroke markers fill;filter:url(#filter347)"
           transform="matrix(0.03931709,0,0,-0.03931709,-643.26074,348.85739)"
           clip-path="url(#clipPath7)" /><path
           id="path83"
           d="M 0,0 C 12.063,-47.935 22.031,-94.653 35.625,-140.293 83.771,-301.937 158.877,-448.72 281.5,-567.354 c 85.963,-83.167 185.044,-148.829 289.217,-206.865 101.728,-56.675 206.218,-108.785 305.367,-169.619 197.966,-121.462 352.365,-283.646 439.85,-502.15 86.857,-216.936 68.04,-428.3 -42.299,-632.342 -81.743,-151.161 -196.805,-273.91 -330.884,-379.822 -1.268,-1.003 -3.058,-1.346 -8.968,-3.833 8.019,14.361 13.963,25.504 20.361,36.38 33.812,57.478 58.673,118.534 73.946,183.471 26.258,111.64 4.241,215.788 -55.85,310.749 -34.249,54.122 -72.608,107.342 -117.46,152.734 -113.397,114.764 -231.959,224.414 -347.508,337.078 -43.569,42.48 -83.617,88.553 -126.881,131.364 -106.934,105.813 -182.109,231.869 -238.496,369.964 C 79.599,-787.678 43.453,-628.317 21.116,-465.562 2.286,-328.363 -5.36,-190.454 -3.314,-52.013 -3.065,-35.123 -1.205,-18.257 0,0"
           style="fill:url(#linearGradient89);fill-opacity:1;fill-rule:nonzero;stroke:#ffffff;stroke-width:28.8388;stroke-linecap:round;stroke-linejoin:miter;stroke-dasharray:none;stroke-opacity:1;paint-order:stroke markers fill;filter:url(#filter347)"
           transform="matrix(0.03931709,0,0,-0.03931709,-621.47536,336.02418)"
           clip-path="url(#clipPath5)" /></g><g
         id="g99"><path
           id="path89"
           style="fill:#ffffff;fill-opacity:1;stroke:#ffffff;stroke-width:1.13386;stroke-linecap:round;stroke-linejoin:miter;stroke-dasharray:none;stroke-opacity:1;paint-order:stroke markers fill"
           d="m -560.41061,504.47657 c -0.73865,-0.0131 -1.3364,0.56097 -1.34961,1.29687 -0.0132,0.73747 0.56195,1.33413 1.29883,1.34766 0.73759,0.0135 1.33592,-0.56149 1.34961,-1.29688 0.0137,-0.73586 -0.56337,-1.3346 -1.29883,-1.34765 z" /><path
           id="path90"
           d="M 0,0 C 0.348,18.716 -14.334,33.952 -33.04,34.284 -51.827,34.617 -67.022,20.009 -67.358,1.292 -67.694,-17.465 -53.071,-32.642 -34.329,-32.986 -15.569,-33.33 -0.348,-18.704 0,0 m -257.892,-638.609 c -86.508,208.202 -226.575,365.862 -409.451,488.67 3.981,3.63 5.858,5.786 8.138,7.356 81.264,55.987 162.666,111.772 243.829,167.904 68.35,47.269 138.927,89.67 219.839,112.872 123.957,35.547 236.14,9.708 339.834,-62.472 67.03,-46.658 119.027,-107.507 162.952,-175.697 1.91,-2.966 3.646,-6.086 5.072,-9.307 0.653,-1.473 0.355,-3.365 0.672,-7.407 -8.226,-0.405 -16.274,-1.979 -23.995,-0.995 -66.862,8.52 -125.685,-12.95 -181.517,-47.028 -90.124,-55.009 -159.589,-130.842 -218.873,-216.75 -49.772,-72.124 -93.997,-147.528 -130.416,-227.367 -4.01,-8.792 -9.17,-17.059 -16.084,-29.779"
           style="fill:#808080;fill-opacity:1;fill-rule:nonzero;stroke:none"
           transform="matrix(0.03931709,0,0,-0.03931709,-559.11192,505.82457)"
           clip-path="url(#clipPath9)" /><path
           id="path91"
           clip-path="url(#clipPath3)"
           style="fill:#808080;fill-opacity:1;fill-rule:nonzero;stroke:none"
           d="m 194.76191,2269.2913 c -114.348006,4.131 -227.896552,-5.9597 -340.38156,-27.6697 -136.727,-26.389 -267.31621,-70.7927 -392.29321,-131.9897 -10.049,-4.921 -16.72009,-9.6074 -12.56809,-22.6524 15.05,-47.288 29.34717,-94.8094 44.16217,-142.1734 1.344,-4.298 4.29238,-8.0839 7.15338,-13.3629 323.071,166.529 660.52662,208.3423 1010.56362,112.2683 351.256,-96.409 621.62658,-305.0686 809.72258,-615.9356 309.15,-510.9361 253.0452,-1194.5597 -191.0548,-1652.5297 -203.21192,-209.559 -449.24989,-341.80828 -736.94689,-394.28028 -180.06336,-32.84063 -359.690013,-29.16628 -542.26577,10.77974 -45.41724,-30.44521 -87.21258,-55.25826 -125.78022,-75.50788 -35.85119,-18.82341 -68.95144,-33.72008 -99.55117,-45.45375 47.29821,-16.96393 95.7579,-31.7809 145.35266,-44.50991 132.09899,-33.905 266.23084,-45.58668 402.47684,-43.31768 81.248,1.352 161.83455,5.32547 241.72455,19.72147 311.506,56.138 581.43044,194.34639 808.9775,413.90239 143.313,138.281 254.8797,299.424725 335.9107,481.362725 81.046,181.972005 125.1382,372.993145 130.9962,571.823145 2.253,76.494 -2.4272,153.56394 -9.6372,229.85194 -15.485,163.81999 -60.397,320.37309 -129.655,469.49009 -129.118,277.996 -323.0651,499.8132 -582.40413,663.7242 -236.413,149.419 -495.53916,226.3819 -774.50216,236.4589 z m -790.64694,-191.0548 c -7.699,-4.101 -12.89112,-6.6739 -17.93312,-9.5379 -164.216,-93.268 -306.03096,-213.2192 -427.31495,-357.7682 -8.763,-10.443 -9.7177,-18.545 -2.0367,-29.607 9.762,-14.058 17.5399,-29.5241 27.3219,-43.5661 21.82399,-31.328 44.37911,-62.1323 68.10611,-95.2293 6.918,8.668 11.05534,14.2587 15.59834,19.5227 33.963,39.349 66.46571,80.0987 102.38271,117.5837 68.493,71.484 144.79977,133.9774 227.26877,188.9684 6.749,4.5 14.50311,14.1027 14.40611,21.2117 -0.783,57.255 -3.29071,114.4461 -5.41471,171.6811 -0.181,4.864 -1.35746,9.7059 -2.38446,16.7409 z m -506.64787,-448.03 c -5.614,-7.408 -9.6226,-12.3754 -13.2636,-17.5854 -171.029,-244.695 -263.5174,-516.5075 -278.8824,-814.19348 -6.664,-129.112 3.0958,-257.51068 29.8058,-384.24568 56.071,-266.04567 170.6837,-499.228855 344.3556,-698.84528 65.81826,-26.1769 138.02896,-47.17348 214.25362,-61.69789 43.76662,-8.33962 88.84953,-14.56034 134.8213,-18.3802 -4.2791,1.62775 -8.26473,3.86063 -11.42553,6.55726 -45.4,38.724 -92.19857,76.17309 -134.47357,118.13009 -113.039,112.19 -203.79492,240.66820084 -271.13292,385.23921 -112.49,241.508 -150.5262,494.82079 -117.3352,758.60579 22.167,176.17598 77.6931,341.77268 165.2231,496.56368 3.974,7.028 4.7061,18.3717 2.1361,26.1297 -8.508,25.674 -20.8172,50.1179 -28.6632,75.9549 -11.303,37.222 -19.9177,75.2591 -29.8057,112.9141 -1.098,4.181 -3.0564,8.1692 -5.6134,14.8532 z M 213.09244,-224.5551 c -4.08579,-20.42241 -11.17411,-41.65084 -21.60916,-63.48622 11.22424,21.09926 18.34134,42.27414 21.60916,63.48622 z M 60.934134,-447.15431 c -28.880592,-24.63077 -56.6781644,-47.40101 -83.406397,-68.45385 13.294917,9.93537 26.4278492,20.08895 39.293901,30.55088 15.067293,12.2517 29.80319,24.8722 44.112496,37.90297 z"
           transform="matrix(0.03931709,0,0,-0.03931709,-598.71652,559.00709)" /><path
           id="path92"
           clip-path="url(#clipPath3)"
           style="fill:#808080;fill-opacity:1;fill-rule:nonzero;stroke:#808080"
           d="m -545.86106,2104.9126 c -0.51905,-0.3965 -1.08061,-0.7685 -1.53996,-1.1922 0.45918,0.4226 1.02126,0.7966 1.53996,1.1922 z m 668.89049,-10.581 c -42.543427,-0.6862 -84.896533,-3.4809 -127.0221338,-8.296 84.2523748,9.6309 169.3272038,11.0614 255.2364838,4.0735 -42.9542,3.4942 -85.67093,4.9086 -128.21435,4.2225 z m 128.21435,-4.2225 c 85.90929,-6.9879 172.64519,-22.3791 260.15444,-46.3976 -87.50925,24.0185 -174.24603,39.4092 -260.15444,46.3976 z M -1038.4506,1426.4843 c 1.2714,-3.8381 1.7286,-8.5774 1.3909,-13.2139 0.3419,4.6588 -0.1151,9.3625 -1.3909,13.2139 z m 1.3413,-13.7107 c -0.1898,-2.2223 -0.535,-4.3937 -1.0929,-6.4579 0.5533,2.0528 0.9031,4.2476 1.0929,6.4579 z m 2588.7775,-43.6654 c 34.6223,-74.544 63.1768,-150.9666 84.9961,-229.2061 -21.8109,78.2528 -50.3671,154.6476 -84.9961,229.2061 z m -2865.2755,-143.7133 c -46.4242,-135.7564 -73.3891,-278.12428 -81.0716,-426.96728 7.6825,148.84299 34.6503,291.21648 81.0716,426.96728 z M 8.4263546,2.8130343 C 6.5179672,2.810588 4.3285824,1.4093014 -0.01860511,-0.01851114 11.899395,-15.649511 23.278881,-29.630713 33.661881,-44.329713 c 36.024,-51.006 39.756112,-101.786927 7.501112,-146.693927 -13.528,-18.832 -31.5120251,-35.49182 -50.3220251,-49.27882 -54.2499999,-39.759 -117.0418979,-61.79319 -181.2188979,-78.83619 -152.973,-40.624 -308.54992,-58.93539 -466.90692,-48.73239 -5.28333,0.3404 -11.07708,1.79238 -16.29381,4.07346 0.71203,-0.31309 1.40423,-0.66546 2.13608,-0.94385 -45.97177,3.81986 -91.05468,10.04058 -134.8213,18.3802 -76.21195,14.52199 -148.3945,35.52708 -214.20392,61.69789 37.82047,-43.4691 78.42808,-85.35303 121.8558,-125.6312 154.47753,-143.27401 329.55765,-249.11875 524.18362,-318.92143 30.59234,11.73211 63.66065,26.63577 99.5015,45.45375 38.56612,20.24882 80.36506,45.06431 125.78022,75.50788 -0.30265,0.0662 -0.59151,0.13229 -0.89417,0.19871 5.928,4.731 8.43248,6.93204 11.12748,8.89204 45.601552,33.1807 91.987979,65.38366 136.4606094,99.94859 11.5397077,9.27041 23.3941166,19.10097 35.3198026,29.01092 59.055062,49.94809 113.163588,105.04541 153.102148,172.37654 2.36029,3.97914 4.34275,7.98849 6.40824,11.97197 9.79528,20.91108 16.65694,41.29776 20.61563,60.90306 -0.19432,-1.24286 -0.52432,-2.48311 -0.74514,-3.72571 7.96196,44.82417 -1.12609,89.8945 -24.93747,135.119357 -38.06,72.283 -105.578706,89.0782211 -178.4867055,96.3222211 -0.125375,0.012437 -0.2701841,0.049839 -0.3974099,0.049676 z M 209.51575,-241.8921 c -0.41678,-1.63985 -0.97676,-3.27869 -1.44061,-4.91795 0.46312,1.63784 1.02445,3.27945 1.44061,4.91795 z m -5.41471,-17.48604 c -0.69968,-1.95752 -1.51692,-3.9053 -2.28511,-5.86179 0.76799,1.95709 1.58576,3.90372 2.28511,5.86179 z m -7.1037,-17.18797 c -0.96,-2.08069 -1.94156,-4.1799 -2.98058,-6.25921 1.03983,2.08067 2.02008,4.17738 2.98058,6.25921 z m -876.33844,-84.20122 c 1.4977,-0.9664 3.09241,-1.84738 4.76892,-2.63284 -1.68328,0.78325 -3.26489,1.66856 -4.76892,2.63284 z"
           transform="matrix(0.03931709,0,0,-0.03931709,-598.71652,559.00709)" /><path
           id="path93"
           d="m 0,0 c 6.772,-14.27 13.676,-28.479 20.296,-42.818 57.234,-123.971 129.688,-237.327 230.072,-331.432 73.201,-68.624 157.123,-121.16 247.096,-164.357 18.516,-8.891 29.198,-20.709 35.941,-40.171 41.322,-119.28 91.05,-234.782 162.019,-339.925 61.799,-91.557 136.339,-172.184 216.116,-248.248 118.057,-112.562 236.979,-224.261 353.162,-338.729 63.204,-62.272 119.796,-130.91 161.777,-209.981 12.407,-23.369 22.084,-48.184 30.29,-74.277 -17.5404,10.9257 -27.8777,99.5618 -220.651,235.743 -119.474,84.4 -247.266,155.229 -373.727,228.23 -104.023,60.047 -206.377,122.614 -299.05,199.683 -119.224,99.149 -212.76,219.412 -290.476,352.652 -77.157,132.279 -139.144,271.74 -184.376,417.65 -34.734,112.047 -60.397,226.903 -89.992,340.537 -1.163,4.463 -1.26,9.202 -1.854,13.812 C -2.238,-1.087 -1.119,-0.544 0,0"
           style="fill:#808080;fill-opacity:1;fill-rule:nonzero;stroke:#ffffff;stroke-width:28.8388;stroke-linecap:round;stroke-linejoin:miter;stroke-dasharray:none;stroke-opacity:1;paint-order:stroke markers fill"
           transform="matrix(0.03931709,0,0,-0.03931709,-643.26074,486.85739)"
           clip-path="url(#clipPath7)" /><path
           id="path94"
           d="M 0,0 C 12.063,-47.935 22.031,-94.653 35.625,-140.293 83.771,-301.937 158.877,-448.72 281.5,-567.354 c 85.963,-83.167 185.044,-148.829 289.217,-206.865 101.728,-56.675 206.218,-108.785 305.367,-169.619 197.966,-121.462 352.365,-283.646 439.85,-502.15 86.857,-216.936 68.04,-428.3 -42.299,-632.342 -81.743,-151.161 -196.805,-273.91 -330.884,-379.822 -1.268,-1.003 -3.058,-1.346 -8.968,-3.833 8.019,14.361 13.963,25.504 20.361,36.38 33.812,57.478 58.673,118.534 73.946,183.471 26.258,111.64 4.241,215.788 -55.85,310.749 -34.249,54.122 -72.608,107.342 -117.46,152.734 -113.397,114.764 -231.959,224.414 -347.508,337.078 -43.569,42.48 -83.617,88.553 -126.881,131.364 -106.934,105.813 -182.109,231.869 -238.496,369.964 C 79.599,-787.678 43.453,-628.317 21.116,-465.562 2.286,-328.363 -5.36,-190.454 -3.314,-52.013 -3.065,-35.123 -1.205,-18.257 0,0"
           style="fill:#808080;fill-opacity:1;fill-rule:nonzero;stroke:#ffffff;stroke-width:28.8388;stroke-linecap:round;stroke-linejoin:miter;stroke-dasharray:none;stroke-opacity:1;paint-order:stroke markers fill"
           transform="matrix(0.03931709,0,0,-0.03931709,-621.47536,474.02418)"
           clip-path="url(#clipPath5)" /></g></g></g></svg>
