<?xml version="1.0" encoding="UTF-8" standalone="no"?>
<!-- Created with Inkscape (http://www.inkscape.org/) -->

<svg
   width="102.04818mm"
   height="34.922745mm"
   viewBox="0 0 102.04818 34.922745"
   version="1.1"
   id="svg1"
   xml:space="preserve"
   xmlns="http://www.w3.org/2000/svg"
   xmlns:svg="http://www.w3.org/2000/svg"><defs
     id="defs1"><clipPath
       clipPathUnits="userSpaceOnUse"
       id="clipPath3"><path
         d="M 0,4251.968 H 13181.103 V 0 H 0 Z"
         transform="translate(-3204.4425,-1399.5319)"
         id="path3" /></clipPath><clipPath
       clipPathUnits="userSpaceOnUse"
       id="clipPath5"><path
         d="M 0,4251.968 H 13181.103 V 0 H 0 Z"
         transform="translate(-2625.589,-3561.0067)"
         id="path5" /></clipPath><clipPath
       clipPathUnits="userSpaceOnUse"
       id="clipPath7"><path
         d="M 0,4251.968 H 13181.103 V 0 H 0 Z"
         transform="translate(-2071.4944,-3234.6039)"
         id="path7" /></clipPath><clipPath
       clipPathUnits="userSpaceOnUse"
       id="clipPath9"><path
         d="M 0,4251.968 H 13181.103 V 0 H 0 Z"
         transform="translate(-4211.755,-2752.1882)"
         id="path9" /></clipPath><clipPath
       clipPathUnits="userSpaceOnUse"
       id="clipPath11"><path
         d="M 0,4251.968 H 13181.103 V 0 H 0 Z"
         transform="translate(-6753.7834,-2017.8971)"
         id="path11" /></clipPath><clipPath
       clipPathUnits="userSpaceOnUse"
       id="clipPath13"><path
         d="M 0,4251.968 H 13181.103 V 0 H 0 Z"
         transform="translate(-7349.5344,-1793.6257)"
         id="path13" /></clipPath><clipPath
       clipPathUnits="userSpaceOnUse"
       id="clipPath15"><path
         d="M 0,4251.968 H 13181.103 V 0 H 0 Z"
         transform="translate(-8829.37,-1594.4264)"
         id="path15" /></clipPath><clipPath
       clipPathUnits="userSpaceOnUse"
       id="clipPath17"><path
         d="M 0,4251.968 H 13181.103 V 0 H 0 Z"
         transform="translate(-11015.046,-1594.2614)"
         id="path17" /></clipPath><clipPath
       clipPathUnits="userSpaceOnUse"
       id="clipPath19"><path
         d="M 0,4251.968 H 13181.103 V 0 H 0 Z"
         transform="translate(-5241.2608,-1934.983)"
         id="path19" /></clipPath><clipPath
       clipPathUnits="userSpaceOnUse"
       id="clipPath21"><path
         d="M 0,4251.968 H 13181.103 V 0 H 0 Z"
         transform="translate(-10323.65,-1169.0095)"
         id="path21" /></clipPath><clipPath
       clipPathUnits="userSpaceOnUse"
       id="clipPath23"><path
         d="M 0,4251.968 H 13181.103 V 0 H 0 Z"
         transform="translate(-9321.9632,-1705.8971)"
         id="path23" /></clipPath><clipPath
       clipPathUnits="userSpaceOnUse"
       id="clipPath25"><path
         d="M 0,4251.968 H 13181.103 V 0 H 0 Z"
         transform="translate(-5998.9928,-1448.8435)"
         id="path25" /></clipPath><clipPath
       clipPathUnits="userSpaceOnUse"
       id="clipPath27"><path
         d="M 0,4251.968 H 13181.103 V 0 H 0 Z"
         transform="translate(-8019.2545,-1716.2194)"
         id="path27" /></clipPath><clipPath
       clipPathUnits="userSpaceOnUse"
       id="clipPath29"><path
         d="M 0,4251.968 H 13181.103 V 0 H 0 Z"
         transform="translate(-2256.6907,-2942.0375)"
         id="path29" /></clipPath><clipPath
       clipPathUnits="userSpaceOnUse"
       id="clipPath31"><path
         d="M 0,4251.968 H 13181.103 V 0 H 0 Z"
         transform="translate(-6282.9392,-2819.2673)"
         id="path31" /></clipPath><clipPath
       clipPathUnits="userSpaceOnUse"
       id="clipPath33"><path
         d="M 0,4251.968 H 13181.103 V 0 H 0 Z"
         transform="translate(-7704.1202,-2576.951)"
         id="path33" /></clipPath><clipPath
       clipPathUnits="userSpaceOnUse"
       id="clipPath35"><path
         d="M 0,4251.968 H 13181.103 V 0 H 0 Z"
         transform="translate(-8558.9672,-2576.8822)"
         id="path35" /></clipPath><clipPath
       clipPathUnits="userSpaceOnUse"
       id="clipPath37"><path
         d="M 0,4251.968 H 13181.103 V 0 H 0 Z"
         transform="translate(-9058.486,-2761.2601)"
         id="path37" /></clipPath><clipPath
       clipPathUnits="userSpaceOnUse"
       id="clipPath39"><path
         d="M 0,4251.968 H 13181.103 V 0 H 0 Z"
         transform="translate(-8243.7632,-2685.5417)"
         id="path39" /></clipPath><clipPath
       clipPathUnits="userSpaceOnUse"
       id="clipPath41"><path
         d="M 0,4251.968 H 13181.103 V 0 H 0 Z"
         transform="translate(-5772.5719,-2577.1091)"
         id="path41" /></clipPath><clipPath
       clipPathUnits="userSpaceOnUse"
       id="clipPath43"><path
         d="M 0,4251.968 H 13181.103 V 0 H 0 Z"
         transform="translate(-5204.6441,-2786.0257)"
         id="path43" /></clipPath><clipPath
       clipPathUnits="userSpaceOnUse"
       id="clipPath45"><path
         d="M 0,4251.968 H 13181.103 V 0 H 0 Z"
         transform="translate(-6621.3839,-2737.2683)"
         id="path45" /></clipPath><clipPath
       clipPathUnits="userSpaceOnUse"
       id="clipPath47"><path
         d="M 0,4251.968 H 13181.103 V 0 H 0 Z"
         transform="translate(-6994.0813,-2635.6327)"
         id="path47" /></clipPath><clipPath
       clipPathUnits="userSpaceOnUse"
       id="clipPath49"><path
         d="M 0,4251.968 H 13181.103 V 0 H 0 Z"
         transform="translate(-7452.6936,-2685.4295)"
         id="path49" /></clipPath><clipPath
       clipPathUnits="userSpaceOnUse"
       id="clipPath51"><path
         d="M 0,4251.968 H 13181.103 V 0 H 0 Z"
         transform="translate(-7459.1975,-2957.6126)"
         id="path51" /></clipPath><filter
       style="color-interpolation-filters:sRGB"
       id="filter347"
       x="-0.012762769"
       y="-0.039541491"
       width="1.0255255"
       height="1.0873208"><feFlood
         result="flood"
         in="SourceGraphic"
         flood-opacity="0.498039"
         flood-color="rgb(0,0,0)"
         id="feFlood346" /><feGaussianBlur
         result="blur"
         in="SourceGraphic"
         stdDeviation="2.000000"
         id="feGaussianBlur346" /><feOffset
         result="offset"
         in="blur"
         dx="0.000000"
         dy="1.000000"
         id="feOffset346" /><feComposite
         result="comp1"
         operator="in"
         in="flood"
         in2="offset"
         id="feComposite346" /><feComposite
         result="comp2"
         operator="over"
         in="SourceGraphic"
         in2="comp1"
         id="feComposite347" /></filter></defs><g
     id="g1"
     transform="matrix(0.26458334,0,0,0.26458333,208.39442,-86.291882)"><g
       id="g340"
       style="fill:#ffffff;filter:url(#filter347)"><path
         id="path10"
         d="m 0,0 c -119.313,-0.305 -214.165,-95.089 -212.766,-212.612 1.388,-116.607 96.086,-210.235 212.524,-210.121 116.67,0.114 212.513,96.264 211.934,212.615 C 211.113,-93.373 116.74,0.298 0,0 m -212.825,-503.996 c 0,-8.455 -0.001,-15.374 -0.001,-22.292 0.006,-76.249 0.212,-152.499 -0.069,-228.747 -0.131,-35.742 -21.625,-61.868 -56.232,-69.841 -32.789,-7.554 -66.498,8.369 -80.95,39.392 -3.867,8.299 -6.345,18.1 -6.355,27.215 -0.22,189.734 -1.914,379.495 0.736,569.194 2.243,160.557 139.795,309.108 299.55,329.655 C 107.023,161.566 253.717,86.74 321.803,-57.981 431.78,-291.75 272.666,-538.006 48.669,-565.86 c -89.032,-11.072 -171.797,5.483 -246.787,56.141 -2.441,1.65 -4.976,3.184 -7.58,4.557 -0.974,0.513 -2.272,0.411 -7.127,1.166"
         style="fill:#ffffff;fill-opacity:1;fill-rule:nonzero;stroke:none"
         transform="matrix(0.03931709,0,0,-0.03931709,-588.36765,395.88796)"
         clip-path="url(#clipPath11)" /><path
         id="path12"
         d="M 0,0 C 118.455,53.526 236.21,106.736 355.07,160.446 301.56,224.676 190.102,240.518 109.922,198.57 37.901,160.893 -12.516,75.342 0,0 m 56.241,-135.456 c 32.201,-37.299 70.996,-56.876 116.386,-62.995 108.085,-14.571 194.452,36.879 235.671,139.386 14.08,35.014 39.145,50.969 75.833,48.273 31.054,-2.282 57.92,-25.047 63.405,-57.566 2.234,-13.246 0.469,-28.708 -4.295,-41.349 -48.21,-127.939 -141.116,-205.229 -274.58,-229.736 -169.005,-31.034 -335.377,63.744 -394.628,224.957 -87.514,238.114 82.61,457.468 288.988,480.483 147.352,16.432 284.885,-52.185 357.487,-181.201 3.763,-6.686 7.243,-13.561 10.397,-20.553 C 549.886,122.168 536.152,83.265 494.111,63.969 413.005,26.743 331.506,-9.628 250.192,-46.403 c -59.236,-26.79 -118.444,-53.641 -177.635,-80.53 -4.718,-2.142 -9.207,-4.79 -16.316,-8.523"
         style="fill:#ffffff;fill-opacity:1;fill-rule:nonzero;stroke:none"
         transform="matrix(0.03931709,0,0,-0.03931709,-564.94446,404.70567)"
         clip-path="url(#clipPath13)" /><path
         id="path14"
         d="M 0,0 C 118.057,-0.157 212.28,93.356 212.536,210.935 212.787,327.063 118.048,422.244 1.95,422.499 -116.688,422.76 -212.542,328.218 -212.345,211.137 -212.148,93.462 -118.31,0.157 0,0 m 210.197,-79.11 c -18.923,-10.83 -35.36,-21.325 -52.708,-30.003 -218.542,-109.33 -483.92,34.305 -512.059,276.963 -21.967,189.431 104.791,361.017 291.577,394.695 199.063,35.889 389.591,-101.659 416.613,-301.634 3.779,-27.97 3.81,-56.563 3.99,-84.878 0.509,-79.795 0.231,-159.596 0.177,-239.393 -0.016,-23.136 -4.86,-44.294 -22.575,-61.288 -39.025,-37.437 -102.387,-22.286 -119.626,28.985 -1.666,4.958 -3.241,9.947 -5.389,16.553"
         style="fill:#ffffff;fill-opacity:1;fill-rule:nonzero;stroke:none"
         transform="matrix(0.03931709,0,0,-0.03931709,-506.76163,412.5376)"
         clip-path="url(#clipPath15)" /><path
         id="path16"
         d="M 0,0 C 118.531,-0.403 212.506,92.14 213.274,210.024 214.032,326.36 119.611,422.378 4.042,422.793 -116.651,423.228 -211.565,331.427 -211.735,211.365 -211.912,86.428 -108.761,-3.582 0,0 m 211.87,-81.795 c -34.942,-15.957 -67.002,-34.385 -101.404,-45.688 -212.748,-69.901 -437.225,71.947 -463.688,294.231 -27.087,227.526 147.452,381.501 310.927,398.828 194.419,20.608 368.851,-110.798 396.344,-303.805 3.151,-22.13 3.895,-44.742 4.011,-67.138 0.443,-85.702 0.249,-171.406 0.119,-257.11 -0.034,-23.041 -4.582,-44.434 -22.195,-61.493 -39.01,-37.785 -102.036,-22.883 -119.582,28.57 -1.694,4.969 -3.32,9.962 -4.532,13.605"
         style="fill:#ffffff;fill-opacity:1;fill-rule:nonzero;stroke:none"
         transform="matrix(0.03931709,0,0,-0.03931709,-420.82719,412.54409)"
         clip-path="url(#clipPath17)" /><path
         id="path18"
         d="m 0,0 c 0.025,85.697 -0.31,171.397 0.115,257.092 0.48,96.879 56.99,180.431 145.819,212.601 22.881,8.286 48.295,12.662 72.666,13.188 76.254,1.65 152.567,0.793 228.856,0.526 42.535,-0.15 74.057,-31.114 73.964,-71.777 -0.094,-40.798 -31.587,-71.555 -74.031,-71.688 -68.601,-0.215 -137.203,0.003 -205.805,-0.12 -65.115,-0.117 -95.866,-30.849 -95.879,-95.556 -0.011,-49.055 -0.001,-98.11 0.028,-147.164 0.015,-25.703 0.042,-25.731 26.604,-25.741 92.258,-0.033 184.519,0.444 276.771,-0.247 56.701,-0.425 90.813,-60.929 62.065,-109.04 -15.375,-25.729 -39.296,-36.134 -68.713,-36.091 -90.482,0.133 -180.966,0.042 -271.449,0.002 -25.204,-0.011 -25.243,-0.069 -25.255,-25.48 -0.023,-50.828 -0.113,-101.655 0.038,-152.483 0.166,-56.277 31.751,-88.21 87.804,-88.412 70.967,-0.254 141.935,0.034 212.902,-0.178 30.558,-0.092 53.798,-13.765 67.249,-41.121 12.777,-25.988 10.283,-51.817 -7.044,-75.321 -13.347,-18.104 -31.463,-28.883 -54.31,-28.946 -81.61,-0.227 -163.271,-1.727 -244.82,0.553 -102.312,2.859 -194.968,92.448 -204.819,194.795 -1.694,17.599 -2.5,35.336 -2.672,53.019 -0.385,39.595 -0.113,79.195 -0.111,118.794 C -0.025,-79.196 -0.026,-39.599 0,0"
         style="fill:#ffffff;fill-opacity:1;fill-rule:nonzero;stroke:none"
         transform="matrix(0.03931709,0,0,-0.03931709,-647.83564,399.1479)"
         clip-path="url(#clipPath19)" /><path
         id="path20"
         d="m 0,0 c -14.195,0 -28.411,-0.47 -42.583,0.098 -29.808,1.193 -53.043,25.114 -52.768,53.695 0.308,31.914 22.806,55.231 54.089,56.414 27.709,1.048 55.466,1.73 83.077,4.044 9.023,0.756 18.964,4.439 26.075,9.912 6.177,4.755 12.863,14.354 12.132,21.024 -0.73,6.674 -9.371,14.264 -16.384,18 -8.046,4.286 -18.028,5.335 -27.325,6.813 -31.356,4.983 -49.266,26.1 -47.311,57.818 0.796,12.914 2.865,25.89 5.822,38.494 3.301,14.081 -1.321,19.485 -15.42,23.227 -129.533,34.382 -218.84,115.101 -257.503,242.771 -71.49,236.075 102.062,438.285 298.616,458.28 49.757,5.062 97.955,0.578 145.525,-13.328 43.599,-12.746 64.09,-49.705 51.981,-92.286 -11.153,-39.224 -51.186,-59.611 -93.277,-47.496 -78,22.454 -147.713,7.668 -206.98,-48.29 -62.122,-58.653 -79.606,-131.259 -59.13,-212.548 26.79,-106.363 141.824,-173.717 250.284,-148.55 9.216,2.138 18.283,4.959 27.549,6.825 35.681,7.188 71.259,-14.534 81.501,-49.51 10.837,-37.011 -6.536,-73.902 -41.946,-86.803 -14.37,-5.236 -29.442,-9.038 -44.508,-11.747 -20.096,-3.613 -17.123,-20.222 -19.777,-33.119 -2.877,-13.988 10.238,-12.097 17.679,-14.301 28.564,-8.461 53.725,-22.032 71.392,-46.652 C 231.021,150.682 224.631,96.503 184.687,55.58 153.984,24.125 115.28,9.013 72.521,3.868 48.514,0.98 24.246,0.264 0.096,-1.432 0.063,-0.954 0.032,-0.478 0,0"
         style="fill:#ffffff;fill-opacity:1;fill-rule:nonzero;stroke:none"
         transform="matrix(0.03931709,0,0,-0.03931709,-448.01089,429.26376)"
         clip-path="url(#clipPath21)" /><path
         id="path22"
         d="m 0,0 c 0,53.785 -0.133,107.57 0.025,161.355 0.521,178.174 158.822,316.034 335.502,292.276 152.439,-20.499 261.084,-144.785 261.099,-298.683 0.011,-112.299 0.236,-224.597 -0.062,-336.894 -0.126,-47.06 -37.306,-80.237 -81.937,-74.214 -36.623,4.943 -63.074,36.258 -63.138,75.844 -0.18,113.48 0.182,226.961 -0.12,340.44 C 451.187,228.919 403,290.037 336.673,306.854 236.33,332.296 143.942,258.718 143.251,151.675 c -0.724,-112.294 -0.045,-224.596 -0.206,-336.894 -0.048,-32.899 -18.855,-58.419 -49.256,-68.222 -29.658,-9.565 -62.993,-0.18 -80.142,26.241 -7.871,12.126 -12.782,28.322 -13.113,42.808 C -0.876,-122.955 -0.065,-61.468 -0.065,0 Z"
         style="fill:#ffffff;fill-opacity:1;fill-rule:nonzero;stroke:none"
         transform="matrix(0.03931709,0,0,-0.03931709,-487.39429,408.1549)"
         clip-path="url(#clipPath23)" /><path
         id="path24"
         d="m 0,0 c -28.972,0 -57.948,-0.267 -86.916,0.063 -42.129,0.482 -72.025,30.075 -72.267,71.019 -0.251,42.763 28.454,73.666 71.088,74.322 57.34,0.885 114.705,0.013 172.051,0.644 27.927,0.307 52.939,18.324 61.964,42.556 13.784,37 -1.216,69.957 -39.794,83.422 -28.424,9.921 -57.774,17.164 -86.52,26.212 -20.83,6.558 -41.764,13.103 -61.923,21.417 -59.758,24.647 -95.668,68.419 -107.136,132.856 -16.822,94.513 19.497,180.056 99.883,230.462 31.818,19.951 66.872,29.792 104.257,30.367 39.605,0.61 79.229,0.312 118.843,0.081 43.096,-0.251 75.707,-31.497 75.974,-72.358 0.267,-40.709 -32.387,-72.684 -75.325,-73.091 -39.021,-0.371 -78.049,0.066 -117.071,-0.177 -35.027,-0.219 -62.968,-21.596 -69.034,-52.281 -7.46,-37.739 7.711,-66.406 45.082,-79.654 29.471,-10.447 60.086,-17.628 90,-26.881 19.735,-6.106 39.522,-12.358 58.6,-20.208 63.765,-26.236 98.413,-74.482 106.831,-142.615 C 303.641,124.311 225.6,18.898 104.485,2.187 70.276,-2.533 34.864,1.466 0.003,1.466 0.002,0.977 0.001,0.489 0,0"
         style="fill:#ffffff;fill-opacity:1;fill-rule:nonzero;stroke:none"
         transform="matrix(0.03931709,0,0,-0.03931709,-618.04383,418.2615)"
         clip-path="url(#clipPath25)" /><path
         id="path26"
         d="m 0,0 c 0.026,58.485 -0.131,116.972 0.057,175.457 0.487,151.878 119.717,270.384 271.961,270.471 11.231,0.007 22.465,0.14 33.694,-0.048 40.73,-0.682 70.703,-29.081 71.781,-67.884 1.219,-43.845 -25.307,-74.149 -67.837,-77.059 -10.006,-0.683 -20.147,-0.944 -30.13,-0.159 -70.196,5.527 -136.358,-49.356 -136.176,-135.132 0.254,-120.516 0.36,-241.033 -0.003,-361.547 -0.162,-53.57 -54.725,-87.606 -102.893,-64.252 -25.956,12.584 -40.521,33.61 -40.497,63.428 C 0.011,-131.149 -0.026,-65.575 0,0"
         style="fill:#ffffff;fill-opacity:1;fill-rule:nonzero;stroke:none"
         transform="matrix(0.03931709,0,0,-0.03931709,-538.61301,407.74905)"
         clip-path="url(#clipPath27)" /><g
         id="g2"
         style="fill:#ffffff"><path
           id="path2"
           d="m 0,0 c 4.637,1.523 6.808,2.987 8.814,2.788 72.908,-7.244 140.415,-24.088 178.475,-96.371 36.086,-68.538 38.758,-136.7 -1.299,-204.231 -43.714,-73.696 -103.388,-133.791 -169.151,-187.265 -49.867,-40.549 -103.696,-76.233 -155.745,-114.105 -2.695,-1.96 -5.226,-4.144 -11.154,-8.875 182.882,-40.129 362.828,-43.88 543.184,-10.986 287.697,52.472 533.751,184.737 736.963,394.296 444.1,457.97 500.206,1141.588 191.056,1652.524 -188.096,310.867 -458.489,519.516 -809.745,615.925 -350.037,96.074 -687.502,54.255 -1010.573,-112.274 -2.861,5.279 -5.779,9.086 -7.123,13.384 -14.815,47.364 -29.134,94.885 -44.184,142.173 -4.152,13.045 2.543,17.732 12.592,22.653 124.977,61.197 255.538,105.615 392.265,132.004 112.485,21.71 226.052,31.784 340.4,27.653 278.963,-10.077 538.052,-87.04 774.465,-236.459 259.339,-163.911 453.334,-385.731 582.452,-663.727 69.258,-149.117 114.13,-305.66 129.615,-469.48 7.21,-76.288 11.924,-153.388 9.671,-229.882 C 1685.12,470.915 1641.018,279.922 1559.972,97.95 1478.941,-83.988 1367.36,-245.148 1224.047,-383.429 996.5,-602.985 726.589,-741.169 415.083,-797.307 c -79.89,-14.396 -160.5,-18.365 -241.748,-19.717 -136.246,-2.269 -270.352,9.388 -402.451,43.293 -253.666,65.106 -477.483,185.34 -669.499,363.43 -242.858,225.245 -397.953,500.499 -466.236,824.488 -26.71,126.735 -36.515,255.117 -29.851,384.229 15.365,297.686 107.865,569.521 278.894,814.216 3.641,5.21 7.658,10.159 13.272,17.567 2.557,-6.684 4.506,-10.641 5.604,-14.822 9.888,-37.655 18.494,-75.692 29.797,-112.914 7.846,-25.837 20.188,-50.287 28.696,-75.961 2.57,-7.758 1.848,-19.129 -2.126,-26.157 -87.53,-154.791 -143.089,-320.367 -165.256,-496.543 -33.191,-263.785 4.877,-517.114 117.367,-758.622 67.338,-144.571 158.098,-273.036 271.137,-385.226 42.275,-41.957 89.052,-79.426 134.452,-118.15 6.578,-5.612 16.797,-9.102 25.582,-9.668 158.357,-10.203 313.929,8.122 466.902,48.746 64.177,17.043 126.969,39.049 181.219,78.808 18.81,13.787 36.818,30.461 50.346,49.293 32.255,44.907 28.516,95.68 -7.508,146.686 C 23.293,-29.632 11.918,-15.631 0,0"
           style="fill:#ffffff;fill-opacity:1;fill-rule:nonzero;stroke:none"
           transform="matrix(0.03931709,0,0,-0.03931709,-727.91742,420.20029)"
           clip-path="url(#clipPath3)" /><path
           id="path4"
           d="M 0,0 C 12.063,-47.935 22.031,-94.653 35.625,-140.293 83.771,-301.937 158.877,-448.72 281.5,-567.354 c 85.963,-83.167 185.044,-148.829 289.217,-206.865 101.728,-56.675 206.218,-108.785 305.367,-169.619 197.966,-121.462 352.365,-283.646 439.85,-502.15 86.857,-216.936 68.04,-428.3 -42.299,-632.342 -81.743,-151.161 -196.805,-273.91 -330.884,-379.822 -1.268,-1.003 -3.058,-1.346 -8.968,-3.833 8.019,14.361 13.963,25.504 20.361,36.38 33.812,57.478 58.673,118.534 73.946,183.471 26.258,111.64 4.241,215.788 -55.85,310.749 -34.249,54.122 -72.608,107.342 -117.46,152.734 -113.397,114.764 -231.959,224.414 -347.508,337.078 -43.569,42.48 -83.617,88.553 -126.881,131.364 -106.934,105.813 -182.109,231.869 -238.496,369.964 C 79.599,-787.678 43.453,-628.317 21.116,-465.562 2.286,-328.363 -5.36,-190.454 -3.314,-52.013 -3.065,-35.123 -1.205,-18.257 0,0"
           style="fill:#ffffff;fill-opacity:1;fill-rule:nonzero;stroke:none"
           transform="matrix(0.03931709,0,0,-0.03931709,-750.67626,335.21738)"
           clip-path="url(#clipPath5)" /><path
           id="path6"
           d="m 0,0 c 6.772,-14.27 13.676,-28.479 20.296,-42.818 57.234,-123.971 129.688,-237.327 230.072,-331.432 73.201,-68.624 157.123,-121.16 247.096,-164.357 18.516,-8.891 29.198,-20.709 35.941,-40.171 41.322,-119.28 91.05,-234.782 162.019,-339.925 61.799,-91.557 136.339,-172.184 216.116,-248.248 118.057,-112.562 236.979,-224.261 353.162,-338.729 63.204,-62.272 119.796,-130.91 161.777,-209.981 12.407,-23.369 22.084,-48.184 30.29,-74.277 -1.066,0.664 -2.652,1.07 -3.124,2.027 -49.185,99.597 -128.747,170.999 -217.527,233.716 -119.474,84.4 -247.266,155.229 -373.727,228.23 -104.023,60.047 -206.377,122.614 -299.05,199.683 -119.224,99.149 -212.76,219.412 -290.476,352.652 -77.157,132.279 -139.144,271.74 -184.376,417.65 -34.734,112.047 -60.397,226.903 -89.992,340.537 -1.163,4.463 -1.26,9.202 -1.854,13.812 C -2.238,-1.087 -1.119,-0.544 0,0"
           style="fill:#ffffff;fill-opacity:1;fill-rule:nonzero;stroke:none"
           transform="matrix(0.03931709,0,0,-0.03931709,-772.46164,348.05059)"
           clip-path="url(#clipPath7)" /><path
           id="path8"
           d="M 0,0 C 0.348,18.716 -14.334,33.952 -33.04,34.284 -51.827,34.617 -67.022,20.009 -67.358,1.292 -67.694,-17.465 -53.071,-32.642 -34.329,-32.986 -15.569,-33.33 -0.348,-18.704 0,0 m -257.892,-638.609 c -86.508,208.202 -226.575,365.862 -409.451,488.67 3.981,3.63 5.858,5.786 8.138,7.356 81.264,55.987 162.666,111.772 243.829,167.904 68.35,47.269 138.927,89.67 219.839,112.872 123.957,35.547 236.14,9.708 339.834,-62.472 67.03,-46.658 119.027,-107.507 162.952,-175.697 1.91,-2.966 3.646,-6.086 5.072,-9.307 0.653,-1.473 0.355,-3.365 0.672,-7.407 -8.226,-0.405 -16.274,-1.979 -23.995,-0.995 -66.862,8.52 -125.685,-12.95 -181.517,-47.028 -90.124,-55.009 -159.589,-130.842 -218.873,-216.75 -49.772,-72.124 -93.997,-147.528 -130.416,-227.367 -4.01,-8.792 -9.17,-17.059 -16.084,-29.779"
           style="fill:#ffffff;fill-opacity:1;fill-rule:nonzero;stroke:none"
           transform="matrix(0.03931709,0,0,-0.03931709,-688.31282,367.01777)"
           clip-path="url(#clipPath9)" /><path
           id="path28"
           d="m 0,0 c -23.727,33.097 -46.266,63.928 -68.09,95.256 -9.782,14.042 -17.553,29.482 -27.315,43.54 -7.681,11.062 -6.744,19.196 2.019,29.639 121.284,144.549 263.117,264.465 427.333,357.733 5.042,2.864 10.229,5.471 17.928,9.572 1.027,-7.035 2.192,-11.864 2.373,-16.728 2.124,-57.235 4.642,-114.467 5.425,-171.722 0.097,-7.109 -7.679,-16.671 -14.428,-21.171 C 262.776,271.128 186.472,208.623 117.979,137.139 82.062,99.654 49.59,58.871 15.627,19.522 11.084,14.258 6.918,8.668 0,0"
           style="fill:#ffffff;fill-opacity:1;fill-rule:nonzero;stroke:none"
           transform="matrix(0.03931709,0,0,-0.03931709,-765.18026,359.55345)"
           clip-path="url(#clipPath29)" /></g><path
         id="path30"
         d="m 0,0 c 23.505,22.195 48.43,39.363 79.507,46.327 98.144,21.994 188.019,-48.366 188.796,-148.616 0.446,-57.335 0.245,-114.676 0.072,-172.015 -0.084,-27.608 -13.037,-42.327 -36.486,-42.442 -23.441,-0.114 -38.514,16.345 -38.63,43.268 -0.24,55.564 0.017,111.131 -0.093,166.696 -0.093,46.899 -31.617,80.643 -75.491,81.099 -45.157,0.47 -79.46,-32.656 -80.121,-79.33 -0.819,-57.919 0.013,-115.859 -0.359,-173.786 -0.172,-26.755 -20.307,-42.665 -46.049,-37.464 -17.677,3.572 -28.777,18.813 -28.878,41.348 -0.258,57.337 0.218,114.679 -0.21,172.015 -0.333,44.618 -35.439,78.077 -79.925,77.178 -42.111,-0.851 -74.883,-34.313 -75.33,-78.407 -0.58,-57.332 0.062,-114.677 -0.278,-172.014 -0.154,-25.951 -15.31,-41.259 -38.814,-40.653 -19.898,0.512 -35.719,14.267 -35.878,34.198 -0.521,65.605 -3.177,131.42 1,196.77 3.87,60.582 39.218,104.037 95.788,125.321 C -115.65,60.46 -61.966,53.084 -14.987,13.537 -10.113,9.434 -5.519,5 0,0"
         style="fill:#ffffff;fill-opacity:1;fill-rule:nonzero;stroke:none"
         transform="matrix(0.03931709,0,0,-0.03931709,-606.87988,364.38042)"
         clip-path="url(#clipPath31)" /><path
         id="path32"
         d="M 0,0 C 60.066,0.006 108.158,47.785 108.587,107.88 109.009,166.955 59.819,216.302 0.352,216.463 -60.018,216.627 -109.154,167.653 -109.232,107.242 -109.31,47.823 -60.593,-0.005 0,0 m 109.54,258.419 c 0,44.937 -0.722,85.007 0.498,125.017 0.313,10.253 4.181,22.664 10.88,30.027 19.017,20.905 52.714,11.636 60.431,-15.632 2.052,-7.25 2.48,-15.153 2.495,-22.758 0.178,-89.18 0.314,-178.362 0.106,-267.542 C 183.711,5.143 95.493,-80.046 -10.026,-75.05 c -95.423,4.519 -176.286,88.804 -174.391,188.001 2.63,137.697 154.812,224.085 274.614,155.903 4.927,-2.803 9.976,-5.391 19.343,-10.435"
         style="fill:#ffffff;fill-opacity:1;fill-rule:nonzero;stroke:none"
         transform="matrix(0.03931709,0,0,-0.03931709,-551.00317,373.90759)"
         clip-path="url(#clipPath33)" /><path
         id="path34"
         d="M 0,0 C 60.449,-0.134 109.771,49.03 109.174,108.824 108.576,168.686 60.239,216.597 0.437,216.606 -59.75,216.616 -108.606,167.796 -108.844,107.408 -109.077,48.206 -60.362,0.134 0,0 m 110.111,259.466 c 0,33.692 -0.007,63.706 0.002,93.721 0.004,11.822 -0.259,23.654 0.133,35.464 0.631,18.972 14.467,33.94 32.593,35.837 18.347,1.92 35.078,-9.761 39.475,-28.375 1.61,-6.813 1.991,-14.044 2.001,-21.086 0.136,-88.666 0.406,-177.333 0.028,-265.997 -0.394,-92.124 -67.477,-169.443 -157.355,-182.255 -90.18,-12.855 -175.002,40.672 -202.654,127.887 -36.747,115.899 50.967,235.914 172.67,237.143 35.354,0.358 67.925,-7.309 98.094,-25.611 3.364,-2.04 7.218,-3.273 15.013,-6.728"
         style="fill:#ffffff;fill-opacity:1;fill-rule:nonzero;stroke:none"
         transform="matrix(0.03931709,0,0,-0.03931709,-517.39308,373.9103)"
         clip-path="url(#clipPath35)" /><path
         id="path36"
         d="M 0,0 C -24.36,32.483 -79.471,41.856 -120.089,22.436 -159.489,3.597 -187.599,-44.186 -178.66,-80.645 -119.009,-53.719 -59.788,-26.988 0,0 m -149.723,-150.767 c 33.394,-41.992 104.347,-46.353 144.787,-8.807 13.845,12.854 24.539,29.996 33.656,46.813 11.744,21.659 29.374,30.897 50.743,22.441 18.39,-7.277 27.117,-27.185 18.801,-49.138 -26.32,-69.49 -77.994,-109.071 -150.781,-118.175 -110.802,-13.858 -207.083,74.825 -204.912,186.221 1.63,83.734 61.797,156.746 144.453,175.293 80.521,18.068 167.044,-22.76 202.854,-95.72 13.557,-27.622 7.496,-46.137 -20.645,-59.024 -67.725,-31.016 -135.684,-61.524 -203.532,-92.275 -4.757,-2.156 -9.372,-4.625 -15.424,-7.629"
         style="fill:#ffffff;fill-opacity:1;fill-rule:nonzero;stroke:none"
         transform="matrix(0.03931709,0,0,-0.03931709,-497.75345,366.66109)"
         clip-path="url(#clipPath37)" /><path
         id="path38"
         d="m 0,0 c 0.082,60.59 -47.093,108.111 -107.424,108.211 -60.651,0.1 -108.715,-47.089 -109.079,-107.092 -0.37,-61.211 47.65,-109.4 108.879,-109.261 C -46.982,-108.004 -0.083,-60.879 0,0 m -2.632,-151.931 c -7.555,-3.999 -14.629,-8.135 -22.02,-11.594 -67.972,-31.808 -134.066,-28.208 -193.812,17.43 -63.313,48.363 -86.84,114.816 -67.052,191.875 18.947,73.787 68.542,121.138 144.206,134.648 C -5.695,204.643 80.811,90.204 75.327,0.258 c -2.797,-45.879 -0.443,-92.07 -0.475,-138.12 -0.019,-25.997 -8.356,-39.747 -26.582,-44.145 -19.85,-4.789 -33.636,2.79 -46.778,25.65 -0.564,0.982 -1.568,1.713 -4.124,4.426"
         style="fill:#ffffff;fill-opacity:1;fill-rule:nonzero;stroke:none"
         transform="matrix(0.03931709,0,0,-0.03931709,-529.78598,369.63812)"
         clip-path="url(#clipPath39)" /><path
         id="path40"
         d="M 0,0 C 60.414,-0.225 109.096,47.718 108.948,107.294 108.797,167.626 61.117,215.725 1.053,216.136 -58.331,216.543 -107.8,167.735 -108.125,108.42 -108.449,49.088 -59.717,0.222 0,0 m 0.468,-74.736 c -102.335,0.022 -184.189,81.335 -184.258,183.039 -0.068,102.718 81.741,183.644 185.415,183.413 102.546,-0.228 183.54,-81.402 183.333,-183.741 C 184.753,6.16 103.046,-74.758 0.468,-74.736"
         style="fill:#ffffff;fill-opacity:1;fill-rule:nonzero;stroke:none"
         transform="matrix(0.03931709,0,0,-0.03931709,-626.94604,373.90137)"
         clip-path="url(#clipPath41)" /><path
         id="path42"
         d="m 0,0 c -0.062,103.234 106.695,213.216 245.071,215.959 21.037,0.417 42.437,-3.242 63.21,-7.336 24.445,-4.818 34.185,-21.304 30.006,-45.936 -3.179,-18.74 -20.362,-28.846 -42.94,-27.961 -29.3,1.147 -59.777,5.646 -87.811,-0.344 C 114.941,114.599 59.243,21.766 79.228,-73.341 c 18.59,-88.469 108.876,-148.504 199.376,-132.565 5.239,0.923 10.443,2.045 15.692,2.902 21.035,3.434 39.8,-7.945 43.793,-26.485 5.102,-23.689 -3.649,-41.221 -26.427,-46.646 C 237.8,-293.726 167.76,-284.305 105.596,-239.13 36.825,-189.156 -0.8,-121.794 0,0"
         style="fill:#ffffff;fill-opacity:1;fill-rule:nonzero;stroke:none"
         transform="matrix(0.03931709,0,0,-0.03931709,-649.27531,365.68738)"
         clip-path="url(#clipPath43)" /><path
         id="path44"
         d="m 0,0 c 0.023,30.731 -0.231,61.466 0.104,92.193 0.268,24.4 13.868,38.69 36.275,39.135 23.139,0.46 38.24,-14.089 38.446,-39.001 0.481,-57.913 -0.116,-115.836 0.385,-173.748 0.288,-33.248 20.547,-62.031 49.869,-73.15 31.071,-11.782 65.469,-3.608 87.585,20.992 13.267,14.756 18.926,32.153 18.817,52.003 -0.289,53.187 -0.169,106.378 0.055,159.566 0.034,8.205 0.526,16.635 2.454,24.561 4.762,19.578 19.282,29.798 39.036,28.664 17.833,-1.023 31.385,-13.655 34.658,-32.322 0.204,-1.163 0.462,-2.343 0.451,-3.512 -0.71,-66.72 2.637,-133.8 -3.218,-200.069 -7.23,-81.833 -81.541,-136.003 -168.123,-129.843 C 63.218,-229.297 0.609,-160.994 0.014,-85.102 -0.209,-56.736 -0.022,-28.367 0,0"
         style="fill:#ffffff;fill-opacity:1;fill-rule:nonzero;stroke:none"
         transform="matrix(0.03931709,0,0,-0.03931709,-593.57322,367.60438)"
         clip-path="url(#clipPath45)" /><path
         id="path46"
         d="m 0,0 c 0.005,28.373 -0.289,56.749 0.062,85.116 0.92,74.43 64.957,143.357 136.76,147.529 87.441,5.081 159.018,-47.674 168.193,-128.093 4.864,-42.641 2.7,-86.097 3.416,-129.19 0.353,-21.274 0.262,-42.561 -0.025,-63.836 -0.378,-27.894 -14.168,-44.139 -37.312,-44.572 -24.044,-0.45 -39.195,15.691 -39.49,44.503 -0.574,56.147 -0.498,112.307 -0.115,168.458 0.227,33.279 -15.323,57.033 -44.23,70.832 -29.843,14.246 -59.07,9.577 -84.672,-11.451 C 83.083,123.277 74.947,101.577 74.964,76.58 75.001,20.427 75.127,-35.728 74.882,-91.88 74.785,-114.249 63.48,-129.305 45.464,-132.626 20.776,-137.178 0.574,-121.234 0.129,-95.753 -0.428,-63.845 -0.005,-31.918 0,0"
         style="fill:#ffffff;fill-opacity:1;fill-rule:nonzero;stroke:none"
         transform="matrix(0.03931709,0,0,-0.03931709,-578.91984,371.6004)"
         clip-path="url(#clipPath47)" /><path
         id="path48"
         d="m 0,0 c 0.025,-47.262 0.138,-94.525 -0.021,-141.787 -0.084,-25.47 -12.414,-40.044 -34.06,-41.014 -23.344,-1.045 -40.38,14.03 -40.54,39.396 -0.604,95.701 -0.577,191.411 0.076,287.112 0.169,24.704 16.465,39.631 38.849,39.341 22.737,-0.294 35.514,-14.798 35.618,-41.261 C 0.106,94.525 -0.026,47.263 0,0"
         style="fill:#ffffff;fill-opacity:1;fill-rule:nonzero;stroke:none"
         transform="matrix(0.03931709,0,0,-0.03931709,-560.88854,369.64253)"
         clip-path="url(#clipPath49)" /><path
         id="path50"
         d="m 0,0 c -0.342,-23.169 -20.122,-42.928 -42.946,-42.901 -23.59,0.027 -43.055,20.452 -42.576,44.675 0.465,23.634 19.733,42.066 43.47,41.584 C -18.426,42.879 0.348,23.522 0,0"
         style="fill:#ffffff;fill-opacity:1;fill-rule:nonzero;stroke:none"
         transform="matrix(0.03931709,0,0,-0.03931709,-560.63282,358.94108)"
         clip-path="url(#clipPath51)" /></g></g></svg>
